<svg id="Layer_1" data-name="Layer 1" xmlns="http://www.w3.org/2000/svg" viewBox="0 0 140.29 165.97"><defs><style>.cls-1{fill:none;stroke:#fff;stroke-miterlimit:10;stroke-width:4px;}</style></defs><title>Apple_logo_white_outline</title><path class="cls-1" d="M150.37,130.25a88.08,88.08,0,0,1-8.71,15.66q-6.87,9.79-11.22,13.56-6.72,6.18-14.42,6.35c-3.69,0-8.14-1.05-13.32-3.18a38.22,38.22,0,0,0-14.34-3.17,39.52,39.52,0,0,0-14.75,3.17q-7.89,3.2-12.74,3.35-7.39.32-14.75-6.52-4.7-4.09-11.74-14A97.1,97.1,0,0,1,22,120.78,90.26,90.26,0,0,1,16.77,91.4q0-16.29,7-28.07A41.33,41.33,0,0,1,38.57,48.41a39.69,39.69,0,0,1,19.95-5.63c3.92,0,9,1.21,15.43,3.59S84.39,50,86.18,50c1.34,0,5.88-1.42,13.57-4.24q10.91-3.93,18.44-3.28,20,1.62,30.24,15.55a.7.7,0,0,1-.2,1Q130.6,70,130.78,89.61A34.2,34.2,0,0,0,142,115.38a37,37,0,0,0,10.63,7.11.69.69,0,0,1,.38.86q-1.26,3.59-2.65,6.9Zm-31.26-123q0,12.15-8.86,22.67c-7,8.15-15.37,12.93-24.48,12.42a.72.72,0,0,1-.65-.62c-.08-.8-.12-1.63-.12-2.49,0-7.78,3.39-16.1,9.4-22.91a36.19,36.19,0,0,1,11.45-8.6A34.64,34.64,0,0,1,118.41,4a.66.66,0,0,1,.7.66V7.24Z" transform="translate(-14.77 -2.03)"/></svg>