<?xml version="1.0" encoding="UTF-8"?>
<!DOCTYPE svg PUBLIC "-//W3C//DTD SVG 1.1//EN" "http://www.w3.org/Graphics/SVG/1.1/DTD/svg11.dtd">
<svg version="1.1" xmlns="http://www.w3.org/2000/svg" xmlns:xlink="http://www.w3.org/1999/xlink" x="0" y="0" width="190" height="105" viewBox="0, 0, 190, 105">
  <g id="Layer_1">
    <g id="money_symbol">
      <path d="M91.571,64.67 L91.571,64.67 C90.942,64.67 90.427,64.155 90.427,63.527 L90.427,36.092 C90.427,35.463 90.942,34.948 91.571,34.948 C92.2,34.948 92.714,35.463 92.714,36.092 L92.714,63.527 C92.714,64.155 92.2,64.67 91.571,64.67" fill="#3DFFBA"/>
      <path d="M98.429,64.67 L98.429,64.67 C97.801,64.67 97.286,64.155 97.286,63.527 L97.286,36.092 C97.286,35.463 97.801,34.948 98.429,34.948 C99.058,34.948 99.573,35.463 99.573,36.092 L99.573,63.527 C99.573,64.155 99.058,64.67 98.429,64.67" fill="#3DFFBA"/>
      <path d="M183.257,96.879 L7.744,96.879 L7.744,9.122 L183.257,9.122 z" fill-opacity="0" stroke="#3DFFBA" stroke-width="4"/>
      <path d="M126.215,53 C126.215,69.963 112.464,83.715 95.501,83.715 C78.536,83.715 64.785,69.963 64.785,53 C64.785,36.036 78.536,22.285 95.501,22.285 C112.464,22.285 126.215,36.036 126.215,53 z" fill-opacity="0" stroke="#3DFFBA" stroke-width="4"/>
      <text transform="matrix(1, 0, -0, 1, 95, 50.683)">
        <tspan x="-10.188" y="10" font-family="Nunito-Regular" font-size="33.024" kerning="0" fill="#3DFFBA">S</tspan>
      </text>
    </g>
  </g>
</svg>
