<svg id="Layer_1" data-name="Layer 1" xmlns="http://www.w3.org/2000/svg" viewBox="0 0 66.44 66.44"><defs><style>.cls-1,.cls-2{fill:none;stroke-miterlimit:10;}.cls-1{stroke:#000;}.cls-2{stroke:#777;}.cls-3{fill:#777;}</style></defs><title>greyContinuityCircle</title><path class="cls-1" d="M48.05,37.28" transform="translate(-14.84 -4.07)"/><circle class="cls-2" cx="33.22" cy="33.22" r="32.72"/><path class="cls-2" d="M16.59,40.44" transform="translate(-14.84 -4.07)"/><path class="cls-3" d="M37.25,31v11.3c0,4.28,1.9,6.09,4.45,6.09,2.83,0,4.64-1.87,4.64-6.09V31h2.49V42.14c0,5.86-3.09,8.27-7.22,8.27-3.91,0-6.85-2.24-6.85-8.16V31Z" transform="translate(-14.84 -4.07)"/><path class="cls-3" d="M57.91,43.09V31.79c0-4.28-1.9-6.09-4.45-6.09-2.83,0-4.64,1.87-4.64,6.09v11.3H46.33V32c0-5.86,3.08-8.27,7.22-8.27,3.91,0,6.85,2.23,6.86,8.15V43.09Z" transform="translate(-14.84 -4.07)"/><path class="cls-3" d="M35.88,21.13l-5.54,9.6a.34.34,0,0,0,.3.51H41.72a.34.34,0,0,0,.3-.51l-5.54-9.6A.34.34,0,0,0,35.88,21.13Z" transform="translate(-14.84 -4.07)"/><path class="cls-3" d="M59.62,52.87l5.54-9.6a.34.34,0,0,0-.3-.51H53.78a.34.34,0,0,0-.3.51L59,52.87A.34.34,0,0,0,59.62,52.87Z" transform="translate(-14.84 -4.07)"/></svg>