<?xml version="1.0" encoding="UTF-8"?>
<!DOCTYPE svg PUBLIC "-//W3C//DTD SVG 1.1//EN" "http://www.w3.org/Graphics/SVG/1.1/DTD/svg11.dtd">
<svg version="1.1" xmlns="http://www.w3.org/2000/svg" xmlns:xlink="http://www.w3.org/1999/xlink" x="0" y="0" width="415" height="310" viewBox="0, 0, 415, 310">
  <g id="Layer_1">
    <g id="Business_Girl_Green_Middle">
      <path d="M14.093,232.135 C14.093,232.135 156.39,238.2 156.39,238.2 C156.39,238.2 154.651,95.968 154.651,95.968 C154.651,95.968 155.948,40.685 94.672,33.666 C33.397,26.648 18.177,76.244 13.015,88.836 C8.028,101 13.744,232.135 14.093,232.135 z" fill="#121111"/>
      <path d="M150.052,210.946 C150.052,210.946 146.477,228.573 142.901,228.573" fill-opacity="0" stroke="#3C3B3B" stroke-width="3" stroke-linecap="round"/>
      <path d="M76.872,222.457 C76.843,222.457 67.856,223.152 67.856,223.152 C67.856,223.152 69.914,235.778 69.914,235.778 C69.914,235.778 82.997,239.827 82.997,239.827 C82.997,239.827 89.058,238.954 89.058,238.954 C89.058,238.954 97.793,235.539 97.793,235.539 C97.793,235.539 97.554,223.31 97.554,223.31" fill="#AD8166"/>
      <g>
        <path d="M6.321,284.685 C6.321,284.685 5.804,261.093 6.321,241.604 C6.837,222.115 25.475,223.652 25.475,223.652 L74.939,223.652 L74.939,209.902 L95.122,209.902 L95.122,223.652 L144.586,223.652 C144.586,223.652 163.224,222.115 163.741,241.604 C164.257,261.093 163.741,284.685 163.741,284.685 L6.321,284.685 z" fill="#1EAD8E"/>
        <path d="M6.321,284.685 C6.321,284.685 5.804,261.093 6.321,241.604 C6.837,222.115 25.475,223.652 25.475,223.652 L74.939,223.652 L74.939,209.902 L95.122,209.902 L95.122,223.652 L144.586,223.652 C144.586,223.652 163.224,222.115 163.741,241.604 C164.257,261.093 163.741,284.685 163.741,284.685 L6.321,284.685 z" fill-opacity="0" stroke="#4C545B" stroke-width="3" stroke-linecap="round" stroke-linejoin="round" stroke-miterlimit="10"/>
      </g>
      <path d="M75.705,224.148 C75.705,224.148 93.533,224.074 93.533,224.074 C93.533,224.074 93.452,205.712 93.452,205.712 C93.452,205.712 75.54,206.038 75.54,206.038 C75.475,206.005 75.705,224.181 75.705,224.148 z" fill="#AD8166"/>
      <path d="M10.878,243.111 C37.694,249.267 67.192,224.489 67.192,224.489 C67.103,224.489 56.212,221.716 56.212,221.716 C56.212,221.716 40.316,226.931 40.316,226.931 C40.316,226.931 34.033,229.466 34.033,229.466 C34.033,229.466 22.789,235.419 22.789,235.419 C22.789,235.419 15.734,236.962 15.734,236.962 C15.734,236.962 10.726,243.076 10.878,243.111 z" fill="#0C0B0B" fill-opacity="0.58"/>
      <path d="M24.654,150.958 C24.654,150.958 24.352,164.112 27.386,166.668 C30.422,169.224 32.449,180.125 34.413,180.463 C36.376,180.799 44.637,192.547 44.637,192.547 C44.637,192.547 74.363,210.617 84.453,207.239 C94.542,203.864 110.128,205.802 114.281,198.455" fill="#D3B6A6"/>
      <path d="M76.872,222.457 L70.726,223.263 L70.265,224.864 L70.726,240.966 L99.366,243.084 L97.554,223.31 L89.179,222.016 L76.872,222.457 z" fill="#AD8166"/>
      <path d="M97.211,284.185 C97.211,284.185 70.419,284.185 70.419,284.185 C70.419,284.185 69.914,236.262 69.914,236.262 C69.914,236.262 77.719,238.2 77.719,238.2 C77.719,238.2 82.414,239.827 82.414,239.827 C82.414,239.827 86.057,239.827 86.057,239.827 C86.057,239.827 89.653,238.2 89.653,238.2 C89.653,238.2 95.706,236.146 95.706,236.146 C95.706,236.146 99.67,241.159 99.67,241.159 C99.67,241.159 97.211,284.185 97.211,284.185 z" fill="#DCC3B5"/>
      <g>
        <path d="M71.226,234.974 C77.145,236.543 84.411,239.395 84.411,239.395 C84.411,239.395 97.453,234.794 97.453,234.794 C97.453,234.794 97.711,238.214 97.711,238.214 C97.711,238.214 84.449,242.423 84.449,242.423 C84.449,242.423 71.264,238.252 71.264,238.252" fill="#D3B6A6"/>
        <path d="M71.226,234.974 C77.145,236.543 84.411,239.395 84.411,239.395 C84.411,239.395 97.453,234.794 97.453,234.794 C97.453,234.794 97.711,238.214 97.711,238.214 C97.711,238.214 84.449,242.423 84.449,242.423 C84.449,242.423 71.264,238.252 71.264,238.252" fill-opacity="0" stroke="#3B4249" stroke-width="1"/>
      </g>
      <path d="M83.418,209.447 L83.418,209.447 C50.113,209.012 23.466,181.661 23.901,148.356 L24.397,110.199 C24.832,76.894 52.186,50.248 85.488,50.683 C118.795,51.117 145.442,78.468 145.007,111.773 L144.508,149.931 C144.073,183.235 116.722,209.882 83.418,209.447" fill="#8A6754"/>
      <path d="M75.535,211.878 C75.535,211.878 82.605,214.706 93.46,211.92 C93.712,211.855 93.234,206.845 93.234,206.845 C93.234,206.845 75.535,206.803 75.535,206.803 C75.505,206.79 75.505,211.819 75.535,211.878 z" fill="#8A6754"/>
      <path d="M81.809,205.707 L81.809,205.707 C49.184,205.282 23.082,178.575 23.508,146.055 L23.994,108.797 C24.42,76.276 51.215,50.258 83.837,50.682 C116.464,51.107 142.566,77.814 142.14,110.334 L141.652,147.592 C141.226,180.113 114.433,206.131 81.809,205.707" fill="#AD8166"/>
      <g>
        <path d="M73.096,224.136 C73.096,224.136 61.442,237.906 61.442,240.209 C61.442,242.511 67.53,247.272 67.53,247.272 C67.53,247.272 57.477,254.935 57.477,254.935 C57.477,254.935 72.214,284.268 72.214,284.268 C72.214,284.268 73.096,224.136 73.096,224.136 z" fill="#168B76"/>
        <path d="M73.096,224.136 C73.096,224.136 61.442,237.906 61.442,240.209 C61.442,242.511 67.53,247.272 67.53,247.272 C67.53,247.272 57.477,254.935 57.477,254.935 C57.477,254.935 72.214,284.268 72.214,284.268 C72.214,284.268 73.096,224.136 73.096,224.136 z" fill-opacity="0" stroke="#4C545B" stroke-width="3" stroke-linejoin="round"/>
      </g>
      <path d="M83.918,209.947 L83.918,209.947 C50.613,209.512 23.966,182.161 24.401,148.856 L24.897,110.699 C25.332,77.394 52.686,50.748 85.988,51.183 C119.295,51.617 145.942,78.968 145.507,112.273 L145.008,150.431 C144.573,183.735 117.222,210.382 83.918,209.947 z" fill-opacity="0" stroke="#4C545B" stroke-width="3" stroke-linecap="round" stroke-miterlimit="10"/>
      <path d="M24.397,107.199 C114.496,100.387 126.881,80.959 134.609,73.74 C142.338,66.52 130.398,64.174 130.398,64.174 C130.398,64.174 102.88,62.807 102.88,62.807 C102.88,62.807 44.803,74.423 44.803,74.764 C44.803,75.106 28.405,84.672 28.405,84.672" fill="#8A6754"/>
      <path d="M138.434,69.133 C138.672,69.427 97.06,98.041 20.85,103.558 C20.85,103.558 28.637,59.335 72.016,45.719 C72.016,45.719 116.327,41.863 138.434,69.133 z" fill="#121111"/>
      <path d="M82.733,147.703 C82.733,147.703 83.326,149.135 83.87,148.898 C84.417,148.656 92.054,145.376 94.389,138.651 L91.813,137.903" fill="#765A4A" fill-opacity="0.645"/>
      <path d="M84.257,123.233 C84.257,123.233 87.273,135.81 91.813,137.906 C91.813,137.906 86.922,147.334 82.731,146.286" fill="#AD8166"/>
      <path d="M84.757,123.441 C84.757,123.441 87.773,136.018 92.313,138.114 C92.313,138.114 87.422,147.542 83.231,146.494" fill-opacity="0" stroke="#4C545B" stroke-width="3" stroke-linecap="round" stroke-miterlimit="10"/>
      <path d="M78.219,179.195 C78.219,179.195 82.065,184.025 90.153,183.486" fill-opacity="0" stroke="#4C545B" stroke-width="3" stroke-linecap="round" stroke-miterlimit="10"/>
      <path d="M100.802,284.185 C100.802,284.185 114.656,256.677 114.656,256.677 C114.656,256.677 112.203,254.435 112.203,254.435 C112.203,254.435 98.577,274.812 98.577,274.812 C98.577,274.812 96.889,282.979 96.889,282.979 C96.889,282.979 101.359,284.185 100.802,284.185 z" fill="#154E41"/>
      <path d="M105.187,249.576 C112.951,241.946 111.045,241.898 111.045,241.898 C111.045,241.898 109.831,239.36 108.252,239.267 C106.673,239.174 103.236,244.282 103.236,244.282 C103.236,244.282 101.1,247.254 101.1,247.254" fill="#154E41"/>
      <g>
        <path d="M97.582,224.648 C97.582,224.648 108.93,237.906 108.93,240.209 C108.93,242.511 102.842,247.272 102.842,247.272 C102.842,247.272 112.895,254.935 112.895,254.935 C112.895,254.935 97.582,283.479 97.582,283.479 C97.582,283.479 97.582,224.648 97.582,224.648 z" fill="#168B76"/>
        <path d="M97.582,224.648 C97.582,224.648 108.93,237.906 108.93,240.209 C108.93,242.511 102.842,247.272 102.842,247.272 C102.842,247.272 112.895,254.935 112.895,254.935 C112.895,254.935 97.582,283.479 97.582,283.479 C97.582,283.479 97.582,224.648 97.582,224.648 z" fill-opacity="0" stroke="#4C545B" stroke-width="3" stroke-linejoin="round"/>
      </g>
      <g id="Eyes">
        <path d="M109.241,115.45 C109.241,115.45 117.902,105.926 126.856,115.158" fill-opacity="0" stroke="#4C545B" stroke-width="3" stroke-linecap="round" stroke-miterlimit="10"/>
        <path d="M43.205,115.45 C43.205,115.45 51.865,105.926 60.82,115.158" fill-opacity="0" stroke="#4C545B" stroke-width="3" stroke-linecap="round" stroke-miterlimit="10"/>
      </g>
      <path d="M151.672,232.135 L154.161,95.968" fill="#333333"/>
      <path d="M129.398,67.934 C129.398,67.934 128.07,183.028 140.494,181.024 C145.459,180.224 151.672,179.194 151.672,179.194 L146.679,80.965 L137.402,68.154" fill="#121111"/>
      <path d="M64.39,221.211 C64.39,221.211 39.292,243.947 11.604,241.777 C8.278,241.517 14.447,224.934 13.552,216.234" fill="#121111"/>
      <path d="M123.393,71.095 C120.561,71.378 108.432,82.14 93.964,83.556" fill-opacity="0" stroke="#3C3B3B" stroke-width="3" stroke-linecap="round"/>
      <path d="M86.293,86.388 C86.293,86.388 76.016,89.786 70.15,90.919" fill-opacity="0" stroke="#3C3B3B" stroke-width="3" stroke-linecap="round"/>
      <path d="M60.468,213.307 C60.468,213.307 58.932,218.711 54.837,223.131" fill-opacity="0" stroke="#3C3B3B" stroke-width="3" stroke-linecap="round"/>
      <path d="M49.898,228.572 C49.898,228.572 46.947,231.081 45.028,231.229" fill-opacity="0" stroke="#3C3B3B" stroke-width="3" stroke-linecap="round"/>
      <path d="M120.946,208.16 C120.946,208.16 119.516,214.922 121.423,216.734" fill-opacity="0" stroke="#3C3B3B" stroke-width="3" stroke-linecap="round"/>
      <path d="M151.488,164.657 C151.488,164.657 153.615,198.732 150.368,203.018" fill-opacity="0" stroke="#3C3B3B" stroke-width="3" stroke-linecap="round"/>
      <g>
        <path d="M140.656,283.479 C140.656,283.479 140.656,255.97 140.656,255.97" fill="#FFFFFF"/>
        <path d="M140.656,283.479 C140.656,283.479 140.656,255.97 140.656,255.97" fill-opacity="0" stroke="#3B4249" stroke-width="3" stroke-linecap="round"/>
      </g>
      <path d="M68.445,223.713 L74.939,223.652 C74.939,223.652 74.792,217.375 74.792,217.375" fill-opacity="0" stroke="#4C545B" stroke-width="2.5" stroke-linecap="round" stroke-linejoin="round"/>
      <path d="M102.027,223.768 L95.037,223.686 C95.037,223.686 95.31,216.734 95.31,216.734" fill-opacity="0" stroke="#4C545B" stroke-width="2.5" stroke-linecap="round" stroke-linejoin="round"/>
      <path d="M29.09,186.268 L30.195,100.566 L17.387,103.217 L17.387,184.722" fill="#121111"/>
      <path d="M23.832,193.419 C23.832,197.951 26.724,229.653 20.941,232.635" fill-opacity="0" stroke="#3C3B3B" stroke-width="3" stroke-linecap="round"/>
      <path d="M61.972,40.961 C59.203,41.403 48.42,42.93 33.482,59.839" fill-opacity="0" stroke="#3C3B3B" stroke-width="3" stroke-linecap="round"/>
      <path d="M29.424,64.51 C28.839,65.317 25.75,68.302 24.581,73.926" fill-opacity="0" stroke="#3C3B3B" stroke-width="3" stroke-linecap="round"/>
    </g>
    <g id="Home_Red">
      <path d="M316.614,208.863 C316.614,208.863 324.343,210.497 335.966,208.912 C336.235,208.875 335.966,203.89 335.966,203.89 C335.966,203.89 316.667,203.963 316.667,203.963" fill="#D3B6A6"/>
      <g id="Chest_Blue">
        <path d="M270.917,284.685 C270.917,284.685 270.528,246.086 270.528,246.086" fill-opacity="0" stroke="#4C545B" stroke-width="3" stroke-linecap="round"/>
        <path d="M383.577,284.685 C383.577,284.685 383.502,246.086 383.502,246.086" fill-opacity="0" stroke="#4C545B" stroke-width="3" stroke-linecap="round"/>
        <g>
          <path d="M245.292,284.685 C245.292,284.685 243.744,253.75 244.285,235.861 C244.825,217.972 264.33,219.383 264.33,219.383 L316.093,219.383 L316.16,206.762 L337.742,206.762 L337.526,219.383 L389.289,219.383 C389.289,219.383 408.794,217.972 409.334,235.861 C409.875,253.75 407.915,284.685 407.915,284.685 L245.292,284.685 z" fill="#EB5065"/>
          <path d="M245.292,284.685 C245.292,284.685 243.744,253.75 244.285,235.861 C244.825,217.972 264.33,219.383 264.33,219.383 L316.093,219.383 L316.16,206.762 L337.742,206.762 L337.526,219.383 L389.289,219.383 C389.289,219.383 408.794,217.972 409.334,235.861 C409.875,253.75 407.915,284.685 407.915,284.685 L245.292,284.685 z" fill-opacity="0" stroke="#4C545B" stroke-width="3" stroke-linecap="round" stroke-linejoin="round" stroke-miterlimit="10"/>
        </g>
      </g>
      <path d="M293.291,219.585 C293.291,219.585 298.342,236.116 327.127,236.29 C355.912,236.116 360.84,219.585 360.84,219.585 L293.291,219.585 z" fill="#4C545B"/>
      <path d="M316.829,221.756 C316.829,221.756 316.635,206.262 316.635,206.262 C316.635,206.262 336.085,206.349 336.085,206.349 C336.085,206.349 335.848,221.559 335.848,221.559 C335.848,221.559 316.829,221.756 316.829,221.756 z" fill="#FBE8DD"/>
      <path d="M296.746,220.446 C296.746,220.446 301.264,233.952 327.039,234.098 C352.815,233.952 357.232,220.446 357.232,220.446 L296.746,220.446 z" fill="#FBE8DD"/>
      <path d="M296.316,199.402 C296.316,199.402 304.033,202.824 304.033,202.824 C304.033,202.824 313.916,205.067 313.916,205.067 C313.916,205.067 321.167,206.274 321.167,206.274 C321.167,206.274 329.893,206.274 329.893,206.274 C329.893,206.274 340.182,204.359 340.182,204.359 C340.182,204.359 346.004,203.511 346.004,203.511 C346.004,203.511 352.774,200.562 352.774,200.562 C352.774,200.562 356.429,200.562 356.429,200.562 C356.429,200.562 356.835,197.986 356.835,197.986 C356.835,197.986 350.066,200.562 350.066,200.562 C350.066,200.562 344.379,201.998 344.379,201.998 C344.379,201.998 339.641,201.762 339.641,201.762 C339.641,201.762 333.954,202.116 333.954,202.116 C333.954,202.116 327.591,202.234 327.591,202.234 C327.591,202.234 322.717,202.352 322.717,202.352 C322.717,202.352 317.166,201.762 317.166,201.762 C317.166,201.762 310.396,200.562 310.396,200.562 C310.396,200.562 304.439,199.756 304.439,199.756 C304.439,199.756 296.992,199.284 296.992,199.284 C296.992,199.284 296.18,199.52 296.316,199.402 z" fill="#D3B6A6"/>
      <path d="M326.233,203.359 C293.253,202.86 266.548,189.904 266.984,159.008 L267.481,123.61 C267.917,92.714 295.26,67.392 328.615,67.795 C361.976,68.199 388.719,94.176 388.283,125.072 L387.783,160.469 C387.347,191.365 358.292,203.758 324.934,203.354" fill="#D3B6A6"/>
      <path d="M326.487,201.998 C292.232,201.515 264.168,187.455 264.621,157.523 L265.136,123.231 C265.589,93.299 293.989,68.767 328.634,69.158 C363.284,69.548 391.061,94.714 390.608,124.646 L390.09,158.938 C389.637,188.87 359.785,202.384 325.137,201.993" fill="#FAE3D6"/>
      <path d="M388.92,106.937 C388.92,106.937 382.634,110.708 374.045,111.546 C365.455,112.384 288.933,110.289 288.933,110.289 C288.933,110.289 277.601,111.217 274.908,116.06 C272.215,120.903 265.211,123.054 265.211,123.054 C265.211,123.054 268.654,105.075 268.654,105.075 C268.654,105.075 274.908,95.844 274.908,95.844 C274.908,95.844 384.962,97.163 384.962,97.163 C384.962,97.163 388.85,107.259 388.92,106.937 z" fill="#D3B6A6"/>
      <g id="Stragglers_Beard">
        <path d="M377.518,186.439 C377.518,186.439 377.518,182.425 377.518,182.425" fill-opacity="0" stroke="#EBD1B9" stroke-width="3" stroke-opacity="0.688" stroke-linecap="round"/>
        <path d="M388.789,165.571 C388.789,165.571 388.789,161.558 388.789,161.558" fill-opacity="0" stroke="#EBD1B9" stroke-width="3" stroke-opacity="0.688" stroke-linecap="round"/>
        <path d="M276.446,182.812 C276.446,182.812 276.446,178.798 276.446,178.798" fill-opacity="0" stroke="#EBD1B9" stroke-width="3" stroke-opacity="0.688" stroke-linecap="round"/>
        <path d="M265.712,163.251 C265.712,163.251 265.712,159.237 265.712,159.237" fill-opacity="0" stroke="#EBD1B9" stroke-width="3" stroke-opacity="0.688" stroke-linecap="round"/>
      </g>
      <path d="M327.041,206.77 L327.041,206.77 C291.926,206.39 263.832,182.535 264.291,153.486 L264.814,120.205 C265.272,91.157 294.112,67.916 329.223,68.295 C364.34,68.674 392.434,92.53 391.976,121.578 L391.45,154.859 C390.992,183.908 362.155,207.149 327.041,206.77 z" fill-opacity="0" stroke="#4C545B" stroke-width="3" stroke-linecap="round" stroke-miterlimit="10"/>
      <g id="Nose_B">
        <path d="M323.805,163.901 C323.805,163.901 324.425,165.208 324.995,164.992 C325.567,164.771 333.561,161.778 336.005,155.642 L333.308,154.96" fill="#D3B6A6"/>
        <path d="M325.902,142.51 C325.902,142.51 329.059,153.985 333.811,155.897 C333.811,155.897 328.692,164.499 324.305,163.543" fill-opacity="0" stroke="#4C545B" stroke-width="3" stroke-linecap="round" stroke-miterlimit="10"/>
      </g>
      <path d="M318.657,180.016 C318.657,180.016 322.682,184.423 331.147,183.931" fill-opacity="0" stroke="#4C545B" stroke-width="3" stroke-linecap="round" stroke-miterlimit="10"/>
      <path d="M296.653,132.273 C296.653,132.273 305.603,122.431 314.857,131.972" fill-opacity="0" stroke="#4C545B" stroke-width="3" stroke-linecap="round" stroke-miterlimit="10"/>
      <path d="M348.262,132.273 C348.262,132.273 357.211,122.431 366.465,131.972" fill-opacity="0" stroke="#4C545B" stroke-width="3" stroke-linecap="round" stroke-miterlimit="10"/>
      <g id="Beard">
        <path d="M270.107,157.566 C270.107,157.566 270.107,153.552 270.107,153.552" fill-opacity="0" stroke="#EBD1B9" stroke-width="3" stroke-opacity="0.688" stroke-linecap="round"/>
        <path d="M276.36,163.758 C276.36,163.758 276.36,159.744 276.36,159.744" fill-opacity="0" stroke="#EBD1B9" stroke-width="3" stroke-opacity="0.688" stroke-linecap="round"/>
        <path d="M283.686,165.881 C283.686,165.881 283.686,161.867 283.686,161.867" fill-opacity="0" stroke="#EBD1B9" stroke-width="3" stroke-opacity="0.688" stroke-linecap="round"/>
        <path d="M276.36,173.754 C276.36,173.754 276.36,169.74 276.36,169.74" fill-opacity="0" stroke="#EBD1B9" stroke-width="3" stroke-opacity="0.688" stroke-linecap="round"/>
        <path d="M283.686,175.392 C283.686,175.392 283.686,171.378 283.686,171.378" fill-opacity="0" stroke="#EBD1B9" stroke-width="3" stroke-opacity="0.688" stroke-linecap="round"/>
        <path d="M296.48,172.308 C296.48,172.308 296.479,168.294 296.479,168.294" fill-opacity="0" stroke="#EBD1B9" stroke-width="3" stroke-opacity="0.688" stroke-linecap="round"/>
        <path d="M289.671,170.065 C289.671,170.065 289.671,166.051 289.671,166.051" fill-opacity="0" stroke="#EBD1B9" stroke-width="3" stroke-opacity="0.688" stroke-linecap="round"/>
        <path d="M289.671,181.438 C289.671,181.438 289.671,177.425 289.671,177.425" fill-opacity="0" stroke="#EBD1B9" stroke-width="3" stroke-opacity="0.688" stroke-linecap="round"/>
        <path d="M289.671,190.871 C289.671,190.871 289.671,186.857 289.671,186.857" fill-opacity="0" stroke="#EBD1B9" stroke-width="3" stroke-opacity="0.688" stroke-linecap="round"/>
        <path d="M296.48,182.825 C296.48,182.825 296.479,178.811 296.479,178.811" fill-opacity="0" stroke="#EBD1B9" stroke-width="3" stroke-opacity="0.688" stroke-linecap="round"/>
        <path d="M296.48,192.336 C296.48,192.336 296.479,188.323 296.479,188.323" fill-opacity="0" stroke="#EBD1B9" stroke-width="3" stroke-opacity="0.688" stroke-linecap="round"/>
        <path d="M302.981,175.027 C302.981,175.027 302.981,171.013 302.981,171.013" fill-opacity="0" stroke="#EBD1B9" stroke-width="3" stroke-opacity="0.688" stroke-linecap="round"/>
        <path d="M302.981,185.165 C302.981,185.165 302.981,181.151 302.981,181.151" fill-opacity="0" stroke="#EBD1B9" stroke-width="3" stroke-opacity="0.688" stroke-linecap="round"/>
        <path d="M302.981,195.668 C302.981,195.668 302.981,191.654 302.981,191.654" fill-opacity="0" stroke="#EBD1B9" stroke-width="3" stroke-opacity="0.688" stroke-linecap="round"/>
        <path d="M321.573,195.792 C321.573,195.792 321.573,191.778 321.573,191.778" fill-opacity="0" stroke="#EBD1B9" stroke-width="3" stroke-opacity="0.688" stroke-linecap="round"/>
        <path d="M333.585,198.22 C333.585,198.22 333.585,191.762 333.585,191.762" fill-opacity="0" stroke="#EBD1B9" stroke-width="3" stroke-opacity="0.688" stroke-linecap="round"/>
        <path d="M327.085,197.163 C327.085,197.163 327.085,193.149 327.085,193.149" fill-opacity="0" stroke="#EBD1B9" stroke-width="3" stroke-opacity="0.688" stroke-linecap="round"/>
        <path d="M310.967,177.974 C310.967,177.974 310.967,173.961 310.967,173.961" fill-opacity="0" stroke="#EBD1B9" stroke-width="3" stroke-opacity="0.688" stroke-linecap="round"/>
        <path d="M316.222,174.964 C316.222,174.964 316.222,170.95 316.222,170.95" fill-opacity="0" stroke="#EBD1B9" stroke-width="3" stroke-opacity="0.688" stroke-linecap="round"/>
        <path d="M321.62,173.364 C321.62,173.364 321.62,169.35 321.62,169.35" fill-opacity="0" stroke="#EBD1B9" stroke-width="3" stroke-opacity="0.688" stroke-linecap="round"/>
        <path d="M327.09,173.364 C327.09,173.364 327.09,169.35 327.09,169.35" fill-opacity="0" stroke="#EBD1B9" stroke-width="3" stroke-opacity="0.688" stroke-linecap="round"/>
        <path d="M332.414,173.364 C332.414,173.364 332.414,169.35 332.414,169.35" fill-opacity="0" stroke="#EBD1B9" stroke-width="3" stroke-opacity="0.688" stroke-linecap="round"/>
        <path d="M337.738,174.964 C337.738,174.964 337.738,170.95 337.738,170.95" fill-opacity="0" stroke="#EBD1B9" stroke-width="3" stroke-opacity="0.688" stroke-linecap="round"/>
        <path d="M310.967,186.002 C310.967,186.002 310.967,181.988 310.967,181.988" fill-opacity="0" stroke="#EBD1B9" stroke-width="3" stroke-opacity="0.688" stroke-linecap="round"/>
        <path d="M342.912,177.974 C342.912,177.974 342.912,173.961 342.912,173.961" fill-opacity="0" stroke="#EBD1B9" stroke-width="3" stroke-opacity="0.688" stroke-linecap="round"/>
        <path d="M342.912,186.002 C342.912,186.002 342.912,181.988 342.912,181.988" fill-opacity="0" stroke="#EBD1B9" stroke-width="3" stroke-opacity="0.688" stroke-linecap="round"/>
        <path d="M342.912,193.541 C342.912,193.541 342.912,189.528 342.912,189.528" fill-opacity="0" stroke="#EBD1B9" stroke-width="3" stroke-opacity="0.688" stroke-linecap="round"/>
        <path d="M337.738,195.573 C337.738,195.573 337.738,191.56 337.738,191.56" fill-opacity="0" stroke="#EBD1B9" stroke-width="3" stroke-opacity="0.688" stroke-linecap="round"/>
        <path d="M382.842,170.195 C382.842,170.195 382.842,166.182 382.842,166.182" fill-opacity="0" stroke="#EBD1B9" stroke-width="3" stroke-opacity="0.688" stroke-linecap="round"/>
        <path d="M369.498,186.439 C369.498,186.439 369.498,182.425 369.498,182.425" fill-opacity="0" stroke="#EBD1B9" stroke-width="3" stroke-opacity="0.688" stroke-linecap="round"/>
        <path d="M382.842,159.887 C382.842,159.887 382.842,155.873 382.842,155.873" fill-opacity="0" stroke="#EBD1B9" stroke-width="3" stroke-opacity="0.688" stroke-linecap="round"/>
        <path d="M377.518,166.062 C377.518,166.062 377.518,162.048 377.518,162.048" fill-opacity="0" stroke="#EBD1B9" stroke-width="3" stroke-opacity="0.688" stroke-linecap="round"/>
        <path d="M369.498,168.184 C369.498,168.184 369.498,164.17 369.498,164.17" fill-opacity="0" stroke="#EBD1B9" stroke-width="3" stroke-opacity="0.688" stroke-linecap="round"/>
        <path d="M377.518,176.057 C377.518,176.057 377.518,172.044 377.518,172.044" fill-opacity="0" stroke="#EBD1B9" stroke-width="3" stroke-opacity="0.688" stroke-linecap="round"/>
        <path d="M369.498,177.695 C369.498,177.695 369.498,173.681 369.498,173.681" fill-opacity="0" stroke="#EBD1B9" stroke-width="3" stroke-opacity="0.688" stroke-linecap="round"/>
        <path d="M356.485,174.611 C356.485,174.611 356.485,170.597 356.485,170.597" fill-opacity="0" stroke="#EBD1B9" stroke-width="3" stroke-opacity="0.688" stroke-linecap="round"/>
        <path d="M363.356,172.508 C363.356,172.508 363.356,168.494 363.356,168.494" fill-opacity="0" stroke="#EBD1B9" stroke-width="3" stroke-opacity="0.688" stroke-linecap="round"/>
        <path d="M363.356,183.742 C363.356,183.742 363.356,179.728 363.356,179.728" fill-opacity="0" stroke="#EBD1B9" stroke-width="3" stroke-opacity="0.688" stroke-linecap="round"/>
        <path d="M363.356,193.253 C363.356,193.253 363.356,189.239 363.356,189.239" fill-opacity="0" stroke="#EBD1B9" stroke-width="3" stroke-opacity="0.688" stroke-linecap="round"/>
        <path d="M356.485,185.129 C356.485,185.129 356.485,181.115 356.485,181.115" fill-opacity="0" stroke="#EBD1B9" stroke-width="3" stroke-opacity="0.688" stroke-linecap="round"/>
        <path d="M356.485,194.64 C356.485,194.64 356.485,190.626 356.485,190.626" fill-opacity="0" stroke="#EBD1B9" stroke-width="3" stroke-opacity="0.688" stroke-linecap="round"/>
        <path d="M349.984,177.47 C349.984,177.47 349.984,173.456 349.984,173.456" fill-opacity="0" stroke="#EBD1B9" stroke-width="3" stroke-opacity="0.688" stroke-linecap="round"/>
        <path d="M349.984,187.623 C349.984,187.623 349.984,183.61 349.984,183.61" fill-opacity="0" stroke="#EBD1B9" stroke-width="3" stroke-opacity="0.688" stroke-linecap="round"/>
        <path d="M349.984,197.103 C349.984,197.103 349.984,193.089 349.984,193.089" fill-opacity="0" stroke="#EBD1B9" stroke-width="3" stroke-opacity="0.688" stroke-linecap="round"/>
        <path d="M283.942,184.136 C283.942,184.136 283.942,180.122 283.942,180.122" fill-opacity="0" stroke="#EBD1B9" stroke-width="3" stroke-opacity="0.688" stroke-linecap="round"/>
        <path d="M316.222,198.486 C316.222,198.486 316.244,192.497 316.244,192.497" fill-opacity="0" stroke="#EBD1B9" stroke-width="3" stroke-opacity="0.688" stroke-linecap="round"/>
        <path d="M310.967,193.895 C310.967,193.895 310.967,189.881 310.967,189.881" fill-opacity="0" stroke="#EBD1B9" stroke-width="3" stroke-opacity="0.688" stroke-linecap="round"/>
        <path d="M271.036,167.892 C271.036,167.892 271.036,163.878 271.036,163.878" fill-opacity="0" stroke="#EBD1B9" stroke-width="3" stroke-opacity="0.688" stroke-linecap="round"/>
      </g>
      <g>
        <path d="M245.253,282.373 C245.253,282.373 244.3,258.937 244.3,258.937 C244.352,258.889 270.52,259.189 270.52,259.189 C270.52,259.189 270.605,282.374 270.605,282.374 C270.605,282.374 245.253,282.373 245.253,282.373 z" fill="#FBE8DD"/>
        <path d="M245.253,282.373 C245.253,282.373 244.3,258.937 244.3,258.937 C244.352,258.889 270.52,259.189 270.52,259.189 C270.52,259.189 270.605,282.374 270.605,282.374 C270.605,282.374 245.253,282.373 245.253,282.373 z" fill-opacity="0" stroke="#4C545B" stroke-width="2.8" stroke-linejoin="round"/>
      </g>
      <g>
        <path d="M407.626,284.685 C407.626,284.685 408.699,258.248 408.699,258.248 C408.647,258.196 383.744,258.445 383.744,258.445 C383.744,258.445 383.538,284.684 383.538,284.684 C383.538,284.684 407.626,284.685 407.626,284.685 z" fill="#FBE8DD"/>
        <path d="M407.626,284.685 C407.626,284.685 408.699,258.248 408.699,258.248 C408.647,258.196 383.744,258.445 383.744,258.445 C383.744,258.445 383.538,284.684 383.538,284.684 C383.538,284.684 407.626,284.685 407.626,284.685 z" fill-opacity="0" stroke="#4C545B" stroke-width="2.8" stroke-linejoin="round"/>
      </g>
      <g id="Hair">
        <g>
          <path d="M265.238,118.282 C265.238,118.282 267.98,99.658 282.706,98.672 C297.432,97.686 366.329,100.151 366.329,100.151 C366.329,100.151 401.532,99.896 407.136,74.511 C412.741,49.126 410.709,49.868 405.688,47.514 C405.688,47.514 405.688,47.514 405.688,47.514 C405.688,47.514 405.688,47.514 405.688,47.514 C403.022,46.264 372.118,33.777 343.167,33.497 C317.595,33.249 293.769,39.479 293.769,39.248 C293.769,39.248 270.467,41.967 267.406,79.935 C264.344,117.902 265.238,119.535 265.238,118.282 z" fill="#C2996E"/>
          <path d="M265.238,118.282 C265.238,118.282 267.98,99.658 282.706,98.672 C297.432,97.686 366.329,100.151 366.329,100.151 C366.329,100.151 401.532,99.896 407.136,74.511 C412.741,49.126 410.709,49.868 405.688,47.514 C405.688,47.514 405.688,47.514 405.688,47.514 C405.688,47.514 405.688,47.514 405.688,47.514 C403.022,46.264 372.118,33.777 343.167,33.497 C317.595,33.249 293.769,39.479 293.769,39.248 C293.769,39.248 270.467,41.967 267.406,79.935 C264.344,117.902 265.238,119.535 265.238,118.282 z" fill-opacity="0" stroke="#4C545B" stroke-width="3" stroke-linecap="round"/>
        </g>
        <path d="M357.917,95.045 C357.917,95.045 373.018,96.37 382.291,91.336" fill-opacity="0" stroke="#E3C09F" stroke-width="3" stroke-linecap="round"/>
        <path d="M386.664,89.471 C389.174,87.994 390.945,86.37 390.945,86.37" fill-opacity="0" stroke="#DBB38E" stroke-width="3" stroke-linecap="round"/>
        <path d="M276.369,63.846 C276.369,63.846 280.221,51.762 293.769,46.687" fill-opacity="0" stroke="#DBB38E" stroke-width="3" stroke-linecap="round"/>
        <path d="M298.732,44.949 C298.732,44.949 302.343,42.887 310.831,43.022" fill-opacity="0" stroke="#DBB38E" stroke-width="3" stroke-linecap="round"/>
        <path d="M351.049,83.479 C351.049,83.479 380.95,82.34 397.026,59.834" fill-opacity="0" stroke="#DBB38E" stroke-width="3" stroke-linecap="round"/>
        <path d="M340.479,83.479 C340.479,83.479 330.136,84.554 325.121,83.479" fill-opacity="0" stroke="#DBB38E" stroke-width="3" stroke-linecap="round"/>
        <path d="M273.968,72.865 C273.968,72.865 271.35,85.935 271.35,95.203" fill-opacity="0" stroke="#DBB38E" stroke-width="3" stroke-linecap="round"/>
        <path d="M337.048,62.002 C337.048,62.002 351.411,63.673 364.696,55.18" fill-opacity="0" stroke="#DBB38E" stroke-width="3" stroke-linecap="round"/>
        <path d="M310.831,70.393 C310.831,70.393 289.636,75.19 288.591,86.37" fill-opacity="0" stroke="#DBB38E" stroke-width="3" stroke-linecap="round"/>
      </g>
    </g>
    <g id="Teacher_Feature">
      <g>
        <path d="M118.359,305.5 C118.359,305.5 117.715,276.086 118.359,251.787 C119.003,227.488 142.241,229.405 142.241,229.405 L203.912,229.405 L203.912,212.261 L229.075,212.261 L229.075,229.405 L290.746,229.405 C290.746,229.405 313.984,227.488 314.628,251.787 C315.272,276.086 314.628,305.5 314.628,305.5 L118.359,305.5 z" fill="#FFFFFF"/>
        <path d="M118.359,305.5 C118.359,305.5 117.715,276.086 118.359,251.787 C119.003,227.488 142.241,229.405 142.241,229.405 L203.912,229.405 L203.912,212.261 L229.075,212.261 L229.075,229.405 L290.746,229.405 C290.746,229.405 313.984,227.488 314.628,251.787 C315.272,276.086 314.628,305.5 314.628,305.5 L118.359,305.5 z" fill-opacity="0" stroke="#4C545B" stroke-width="3" stroke-linecap="round" stroke-linejoin="round" stroke-miterlimit="10"/>
      </g>
      <path d="M203.917,228.583 C203.917,228.583 228.555,228.446 228.555,228.446 C228.555,228.446 228.558,207.161 228.558,207.161 C228.558,207.161 203.396,207.511 203.396,207.511" fill="#FBE8DE"/>
      <path d="M141.419,138.895 C141.419,138.895 141.042,155.295 144.825,158.482 C148.611,161.669 151.138,175.259 153.586,175.681 C156.034,176.1 166.334,190.746 166.334,190.746 C166.334,190.746 203.396,213.276 215.975,209.065 C228.555,204.857 247.986,207.274 253.165,198.113" fill="#D3B6A6"/>
      <path d="M214.685,211.818 L214.685,211.818 C173.161,211.275 139.938,177.175 140.481,135.651 L141.099,88.076 C141.641,46.552 175.745,13.33 217.266,13.872 C258.793,14.415 292.015,48.515 291.473,90.039 L290.852,137.614 C290.309,179.137 256.209,212.36 214.685,211.818" fill="#D3B6A6"/>
      <path d="M204.238,214.8 C204.238,214.8 214.718,218.26 228.252,214.787 C228.566,214.706 227.242,208.665 227.242,208.665 C227.242,208.665 203.651,208.665 203.651,208.665" fill="#D3B6A6"/>
      <path d="M213.169,207.154 L213.169,207.154 C172.493,206.625 139.949,173.327 140.481,132.782 L141.086,86.328 C141.617,45.782 175.025,13.343 215.698,13.872 C256.377,14.402 288.92,47.699 288.389,88.245 L287.78,134.698 C287.249,175.244 253.845,207.684 213.169,207.154" fill="#FAE3D6"/>
      <g>
        <path d="M203.253,57.203 C203.253,57.203 195.818,64.522 142.44,74.52 L142.44,66.853 L151.148,56.316 L199.027,52.295 L203.253,57.203 z" fill="#D3B6A6"/>
        <path d="M199.027,52.292 C199.027,52.292 215.551,80.71 291.327,82.723 L290.547,70.407 L191.22,42.198 L199.027,52.292 z" fill="#D3B6A6"/>
      </g>
      <path d="M215.185,212.318 L215.185,212.318 C173.661,211.775 140.438,177.675 140.981,136.151 L141.599,88.576 C142.141,47.052 176.245,13.83 217.766,14.372 C259.293,14.915 292.515,49.015 291.973,90.539 L291.352,138.114 C290.809,179.637 256.709,212.86 215.185,212.318 z" fill-opacity="0" stroke="#4C545B" stroke-width="3" stroke-linecap="round" stroke-miterlimit="10"/>
      <path d="M214.025,134.836 C214.025,134.836 214.764,136.621 215.443,136.326 C216.124,136.025 225.647,131.934 228.558,123.55 L225.346,122.618" fill="#D3B6A6"/>
      <path d="M215.925,104.328 C215.925,104.328 219.685,120.008 225.346,122.621 C225.346,122.621 219.248,134.376 214.022,133.069" fill="#FAE3D6"/>
      <g>
        <path d="M133.427,230.895 C133.427,230.895 151.076,259.379 152.874,305.5 L282.063,305.5 C283.862,259.379 300.477,231.686 300.477,231.686 L133.427,230.895 z" fill="#096E9E"/>
        <path d="M133.427,230.895 C133.427,230.895 151.076,259.379 152.874,305.5 L282.063,305.5 C283.862,259.379 300.477,231.686 300.477,231.686 L133.427,230.895 z" fill-opacity="0" stroke="#4C545B" stroke-width="3" stroke-linecap="round" stroke-linejoin="round"/>
      </g>
      <g>
        <path d="M250.692,232.318 C250.692,232.318 221.65,271.813 217.268,272.358 C212.886,272.903 185.433,237.256 185.382,231.977" fill="#FFFFFF"/>
        <path d="M250.692,232.318 C250.692,232.318 221.65,271.813 217.268,272.358 C212.886,272.903 185.433,237.256 185.382,231.977" fill-opacity="0" stroke="#4C545B" stroke-width="3"/>
      </g>
      <path d="M216.425,104.828 C216.425,104.828 220.185,120.508 225.846,123.121 C225.846,123.121 219.748,134.876 214.522,133.569" fill-opacity="0" stroke="#4C545B" stroke-width="3" stroke-linecap="round" stroke-miterlimit="10"/>
      <path d="M207.945,173.977 C207.945,173.977 212.74,179.998 222.824,179.326" fill-opacity="0" stroke="#4C545B" stroke-width="3" stroke-linecap="round" stroke-miterlimit="10"/>
      <path d="M288.896,94.296 C288.896,111.762 274.737,125.92 257.272,125.92 C239.806,125.92 225.647,111.762 225.647,94.296 C225.647,76.831 239.806,62.672 257.272,62.672 C274.737,62.672 288.896,76.831 288.896,94.296 z" fill-opacity="0" stroke="#4C545B" stroke-width="3" stroke-linecap="round" stroke-miterlimit="10"/>
      <path d="M210.007,91.191 C210.007,109.488 195.174,124.321 176.876,124.321 C158.579,124.321 143.746,109.488 143.746,91.191 C143.746,72.893 158.579,58.06 176.876,58.06 C195.174,58.06 210.007,72.893 210.007,91.191 z" fill-opacity="0" stroke="#4C545B" stroke-width="3" stroke-linecap="round" stroke-miterlimit="10"/>
      <path d="M251.5,172.976 C251.5,172.976 250.292,174.983 244.936,175.678 C239.583,176.372 218.274,172.399 215.975,167.738 C215.975,167.738 202.794,175.51 184.833,177.064 C184.833,177.064 175.38,174.4 173.433,169.808 C171.483,165.22 215.443,152.885 215.443,152.885" fill="#D3B6A6"/>
      <g id="Mustache">
        <g>
          <path d="M215.426,146.12 C215.426,146.12 227.338,131.826 235.388,146.12 C243.442,160.414 249.352,160.668 253.279,160.668 C257.206,160.668 260.842,160.157 263.697,156.33 C266.556,152.5 261.068,174.807 246.81,172.194 C246.81,172.194 215.426,169.378 215.426,157.748" fill="#4B2C00"/>
          <path d="M215.426,146.12 C215.426,146.12 227.338,131.826 235.388,146.12 C243.442,160.414 249.352,160.668 253.279,160.668 C257.206,160.668 260.842,160.157 263.697,156.33 C266.556,152.5 261.068,174.807 246.81,172.194 C246.81,172.194 215.426,169.378 215.426,157.748" fill-opacity="0" stroke="#27292D" stroke-width="3"/>
        </g>
        <path d="M216.285,145.247 C216.285,145.247 204.373,130.953 196.323,145.247 C188.27,159.542 182.359,159.795 178.432,159.795 C174.506,159.795 170.869,159.285 168.014,155.458 C165.155,151.627 170.644,173.934 184.901,171.321 C184.901,171.321 216.285,168.505 216.285,156.875" fill="#4B2C00"/>
        <path d="M215.943,145.746 C215.943,145.746 204.235,131.451 196.324,145.746 C188.409,160.041 182.6,160.295 178.741,160.295 C174.882,160.295 171.308,159.784 168.502,155.957 C165.692,152.126 171.086,174.434 185.098,171.821 C185.098,171.821 215.943,169.005 215.943,157.374" fill-opacity="0" stroke="#27292D" stroke-width="3" stroke-linecap="round" stroke-miterlimit="10"/>
      </g>
      <path d="M210.406,90.771 C210.406,90.771 217.326,81.127 225.647,90.771" fill-opacity="0" stroke="#4C545B" stroke-width="3" stroke-linecap="round" stroke-miterlimit="10"/>
      <path d="M142.58,67.827 C142.58,67.827 193.664,58.155 204.766,50.405 C215.868,42.659 191.362,11.935 191.362,11.935 C191.362,11.935 148.947,25.741 142.58,67.827" fill="#68381E"/>
      <path d="M143.746,68.327 C143.746,68.327 194.831,58.655 205.932,50.905 C217.034,43.158 192.528,12.435 192.528,12.435 C192.528,12.435 150.113,26.241 143.746,68.327 z" fill-opacity="0" stroke="#27292D" stroke-width="3" stroke-linecap="round" stroke-miterlimit="10"/>
      <path d="M187.757,13.127 C187.757,13.127 188.213,38.879 212.519,57.286 C227.626,68.727 251.947,77.333 291.099,75.155 C291.099,75.155 274.803,-17.092 187.757,13.127" fill="#68381E"/>
      <path d="M187.689,13.627 C187.689,13.627 188.145,39.379 212.451,57.786 C227.557,69.227 251.879,77.833 291.031,75.655 C291.031,75.655 274.735,-16.592 187.689,13.627 z" fill-opacity="0" stroke="#27292D" stroke-width="3" stroke-linecap="round" stroke-miterlimit="10"/>
      <path d="M178.861,29.901 C178.861,29.901 181.052,48.219 188.257,49.079" fill-opacity="0" stroke="#3B2800" stroke-width="3" stroke-linecap="round" stroke-miterlimit="10"/>
      <path d="M155.39,51.083 C155.39,51.083 166.84,57.656 178.861,55.513" fill-opacity="0" stroke="#3B2800" stroke-width="3" stroke-linecap="round" stroke-miterlimit="10"/>
      <path d="M208.183,17.879 C208.183,17.879 203.103,46.504 239.931,59.958" fill-opacity="0" stroke="#3B2800" stroke-width="3" stroke-linecap="round" stroke-miterlimit="10"/>
      <path d="M246.032,32.19 C246.032,32.19 266.739,36.585 278.186,64.88" fill-opacity="0" stroke="#3B2800" stroke-width="3" stroke-linecap="round" stroke-miterlimit="10"/>
      <path d="M255.574,53.765 C255.574,53.765 263.209,56.179 262.112,63.935" fill-opacity="0" stroke="#3B2800" stroke-width="3" stroke-linecap="round" stroke-miterlimit="10"/>
      <path d="M183.836,167.229 C183.836,167.229 188.339,167.432 193.635,165.476" fill-opacity="0" stroke="#251A00" stroke-width="3" stroke-linecap="round" stroke-miterlimit="10"/>
      <path d="M225.346,145.506 C225.346,145.506 226.132,151.341 228.555,152.885" fill="#4B2C00"/>
      <path d="M225.846,146.006 C225.846,146.006 226.632,151.841 229.055,153.385" fill-opacity="0" stroke="#251A00" stroke-width="3" stroke-linecap="round" stroke-miterlimit="10"/>
      <path d="M239.428,164.976 C239.428,164.976 240.211,166.194 245.532,164.976" fill="#4B2C00"/>
      <path d="M239.928,165.476 C239.928,165.476 240.711,166.694 246.032,165.476" fill-opacity="0" stroke="#251A00" stroke-width="3" stroke-linecap="round" stroke-miterlimit="10"/>
      <path d="M207.445,145.506 C207.445,145.506 205.013,148.75 203.396,151.185" fill="#4B2C00"/>
      <path d="M213.027,230.895 C213.027,230.895 212.843,266.657 212.843,266.902" fill-opacity="0" stroke="#4C545B" stroke-width="3" stroke-linecap="round"/>
      <path d="M207.945,146.006 C207.945,146.006 205.513,149.25 203.896,151.685" fill-opacity="0" stroke="#251A00" stroke-width="3" stroke-linecap="round" stroke-miterlimit="10"/>
      <g id="Cuffs">
        <g>
          <path d="M216.558,229.482 C216.558,229.482 228.454,223.482 228.224,214.373 C227.995,205.265 240.898,229.482 240.898,229.482 C240.898,229.482 225.291,240.605 225.291,240.605 C225.291,240.605 225.42,232.358 216.558,229.482 z" fill="#FFFFFF"/>
          <path d="M216.558,229.482 C216.558,229.482 228.454,223.482 228.224,214.373 C227.995,205.265 240.898,229.482 240.898,229.482 C240.898,229.482 225.291,240.605 225.291,240.605 C225.291,240.605 225.42,232.358 216.558,229.482 z" fill-opacity="0" stroke="#4C545B" stroke-width="3"/>
        </g>
        <g>
          <path d="M216.393,229.482 C216.393,229.482 204.497,223.482 204.727,214.373 C204.956,205.265 192.053,229.482 192.053,229.482 C192.053,229.482 207.66,240.605 207.66,240.605 C207.66,240.605 207.531,232.358 216.393,229.482 z" fill="#FFFFFF"/>
          <path d="M216.393,229.482 C216.393,229.482 204.497,223.482 204.727,214.373 C204.956,205.265 192.053,229.482 192.053,229.482 C192.053,229.482 207.66,240.605 207.66,240.605 C207.66,240.605 207.531,232.358 216.393,229.482 z" fill-opacity="0" stroke="#4C545B" stroke-width="3"/>
        </g>
      </g>
      <g>
        <path d="M118.359,305.5 C118.359,305.5 314.592,305.5 314.592,305.5" fill="#0C2103"/>
        <path d="M118.359,305.5 C118.359,305.5 314.592,305.5 314.592,305.5" fill-opacity="0" stroke="#3C4249" stroke-width="3"/>
      </g>
      <g id="Bow_Tie">
        <g>
          <path d="M211.949,239.827 L197.846,248.167 L197.846,224.749 L211.376,231.093" fill="#FFFFFF"/>
          <path d="M211.949,239.827 L197.846,248.167 L197.846,224.749 L211.376,231.093" fill-opacity="0" stroke="#4C545B" stroke-width="3" stroke-linecap="round" stroke-linejoin="round" stroke-miterlimit="10"/>
        </g>
        <g>
          <path d="M221.005,239.827 L235.108,248.167 L235.108,224.749 L221.578,231.093" fill="#FFFFFF"/>
          <path d="M221.005,239.827 L235.108,248.167 L235.108,224.749 L221.578,231.093" fill-opacity="0" stroke="#4C545B" stroke-width="3" stroke-linecap="round" stroke-linejoin="round" stroke-miterlimit="10"/>
        </g>
        <g>
          <path d="M209.429,235.246 L204.897,235.246" fill="#FFFFFF"/>
          <path d="M209.429,235.246 L204.897,235.246" fill-opacity="0" stroke="#4C545B" stroke-width="3" stroke-linecap="round" stroke-linejoin="round" stroke-miterlimit="10"/>
        </g>
        <g>
          <path d="M222.741,235.246 L227.571,235.246" fill="#FFFFFF"/>
          <path d="M222.741,235.246 L227.571,235.246" fill-opacity="0" stroke="#4C545B" stroke-width="3" stroke-linecap="round" stroke-linejoin="round" stroke-miterlimit="10"/>
        </g>
        <g>
          <path d="M222.741,235.246 C222.741,238.489 219.76,241.121 216.083,241.121 C212.41,241.121 209.429,238.489 209.429,235.246 C209.429,233.623 210.174,232.155 211.38,231.09 C212.582,230.026 214.248,229.368 216.083,229.368 C219.757,229.368 222.741,232 222.741,235.246 z" fill="#FFFFFF"/>
          <path d="M222.741,235.246 C222.741,238.489 219.76,241.121 216.083,241.121 C212.41,241.121 209.429,238.489 209.429,235.246 C209.429,233.623 210.174,232.155 211.38,231.09 C212.582,230.026 214.248,229.368 216.083,229.368 C219.757,229.368 222.741,232 222.741,235.246 z" fill-opacity="0" stroke="#4C545B" stroke-width="3" stroke-linecap="round" stroke-miterlimit="10"/>
        </g>
      </g>
      <g id="Buttons">
        <path d="M216.712,251.229 C216.216,251.229 215.814,250.827 215.814,250.331 C215.814,249.835 216.216,249.433 216.712,249.433 C217.208,249.433 217.609,249.835 217.609,250.331 C217.609,250.827 217.208,251.229 216.712,251.229 z" fill-opacity="0" stroke="#4C545B" stroke-width="1"/>
        <path d="M216.712,259.498 C216.216,259.498 215.814,259.096 215.814,258.6 C215.814,258.104 216.216,257.702 216.712,257.702 C217.208,257.702 217.609,258.104 217.609,258.6 C217.609,259.096 217.208,259.498 216.712,259.498 z" fill-opacity="0" stroke="#4C545B" stroke-width="1"/>
        <path d="M216.712,268.231 C216.216,268.231 215.814,267.829 215.814,267.333 C215.814,266.837 216.216,266.435 216.712,266.435 C217.208,266.435 217.609,266.837 217.609,267.333 C217.609,267.829 217.208,268.231 216.712,268.231 z" fill-opacity="0" stroke="#4C545B" stroke-width="1"/>
      </g>
      <g id="Eyes">
        <path d="M246.952,94.5 C246.952,94.5 257.749,82.626 268.914,94.136" fill-opacity="0" stroke="#4C545B" stroke-width="3" stroke-linecap="round" stroke-miterlimit="10"/>
        <path d="M164.619,94.5 C164.619,94.5 175.416,82.626 186.581,94.136" fill-opacity="0" stroke="#4C545B" stroke-width="3" stroke-linecap="round" stroke-miterlimit="10"/>
      </g>
    </g>
    <path d="M29.333,284.685 C29.333,284.685 29.333,257.177 29.333,257.177" fill-opacity="0" stroke="#4C545B" stroke-width="3" stroke-linecap="round"/>
  </g>
</svg>
