<?xml version="1.0" encoding="UTF-8"?>
<!DOCTYPE svg PUBLIC "-//W3C//DTD SVG 1.1//EN" "http://www.w3.org/Graphics/SVG/1.1/DTD/svg11.dtd">
<svg version="1.1" xmlns="http://www.w3.org/2000/svg" xmlns:xlink="http://www.w3.org/1999/xlink" x="0" y="0" width="165" height="260" viewBox="0, 0, 165, 260">
  <g id="Layer_1">
    <path d="M12.062,203.548 C12.062,203.548 154.359,209.613 154.359,209.613 C154.359,209.613 152.62,67.38 152.62,67.38 C152.62,67.38 153.917,12.098 92.642,5.079 C31.366,-1.94 16.147,47.657 10.984,60.249 C5.997,72.413 11.714,203.548 12.062,203.548 z" fill="#121111"/>
    <path d="M148.022,182.359 C148.022,182.359 144.446,199.985 140.87,199.985" fill-opacity="0" stroke="#3C3B3B" stroke-width="3" stroke-linecap="round"/>
    <path d="M74.841,193.869 C74.812,193.869 65.825,194.564 65.825,194.564 C65.825,194.564 67.883,207.19 67.883,207.19 C67.883,207.19 80.966,211.24 80.966,211.24 C80.966,211.24 87.027,210.367 87.027,210.367 C87.027,210.367 95.762,206.952 95.762,206.952 C95.762,206.952 95.524,194.723 95.524,194.723" fill="#AD8166"/>
    <g>
      <path d="M4.29,256.098 C4.29,256.098 3.774,232.506 4.29,213.017 C4.806,193.527 23.445,195.065 23.445,195.065 L72.909,195.065 L72.909,181.314 L93.091,181.314 L93.091,195.065 L142.555,195.065 C142.555,195.065 161.194,193.527 161.71,213.017 C162.226,232.506 161.71,256.098 161.71,256.098 L4.29,256.098 z" fill="#1EAD8E"/>
      <path d="M4.29,256.098 C4.29,256.098 3.774,232.506 4.29,213.017 C4.806,193.527 23.445,195.065 23.445,195.065 L72.909,195.065 L72.909,181.314 L93.091,181.314 L93.091,195.065 L142.555,195.065 C142.555,195.065 161.194,193.527 161.71,213.017 C162.226,232.506 161.71,256.098 161.71,256.098 L4.29,256.098 z" fill-opacity="0" stroke="#4C545B" stroke-width="3" stroke-linecap="round" stroke-linejoin="round" stroke-miterlimit="10"/>
    </g>
    <path d="M73.674,195.561 C73.674,195.561 91.502,195.487 91.502,195.487 C91.502,195.487 91.421,177.124 91.421,177.124 C91.421,177.124 73.509,177.451 73.509,177.451 C73.444,177.418 73.674,195.594 73.674,195.561 z" fill="#AD8166"/>
    <path d="M8.847,214.524 C35.663,220.68 65.162,195.902 65.162,195.902 C65.072,195.902 54.182,193.129 54.182,193.129 C54.182,193.129 38.285,198.343 38.285,198.343 C38.285,198.343 32.002,200.879 32.002,200.879 C32.002,200.879 20.758,206.831 20.758,206.831 C20.758,206.831 13.703,208.375 13.703,208.375 C13.703,208.375 8.695,214.489 8.847,214.524 z" fill="#0C0B0B" fill-opacity="0.58"/>
    <path d="M22.623,122.371 C22.623,122.371 22.321,135.525 25.355,138.081 C28.392,140.637 30.419,151.538 32.382,151.876 C34.346,152.212 42.606,163.959 42.606,163.959 C42.606,163.959 72.333,182.03 82.422,178.652 C92.511,175.277 108.097,177.215 112.25,169.867" fill="#D3B6A6"/>
    <path d="M74.841,193.869 L68.695,194.676 L68.234,196.276 L68.695,212.379 L97.335,214.496 L95.524,194.723 L87.148,193.428 L74.841,193.869 z" fill="#AD8166"/>
    <path d="M95.181,255.598 C95.181,255.598 68.389,255.598 68.389,255.598 C68.389,255.598 67.883,207.675 67.883,207.675 C67.883,207.675 75.689,209.613 75.689,209.613 C75.689,209.613 80.384,211.24 80.384,211.24 C80.384,211.24 84.026,211.24 84.026,211.24 C84.026,211.24 87.622,209.613 87.622,209.613 C87.622,209.613 93.675,207.558 93.675,207.558 C93.675,207.558 97.639,212.572 97.639,212.572 C97.639,212.572 95.181,255.598 95.181,255.598 z" fill="#DCC3B5"/>
    <g>
      <path d="M69.195,206.387 C75.115,207.956 82.381,210.808 82.381,210.808 C82.381,210.808 95.422,206.206 95.422,206.206 C95.422,206.206 95.681,209.626 95.681,209.626 C95.681,209.626 82.419,213.836 82.419,213.836 C82.419,213.836 69.233,209.664 69.233,209.664" fill="#D3B6A6"/>
      <path d="M69.195,206.387 C75.115,207.956 82.381,210.808 82.381,210.808 C82.381,210.808 95.422,206.206 95.422,206.206 C95.422,206.206 95.681,209.626 95.681,209.626 C95.681,209.626 82.419,213.836 82.419,213.836 C82.419,213.836 69.233,209.664 69.233,209.664" fill-opacity="0" stroke="#3B4249" stroke-width="1"/>
    </g>
    <path d="M81.387,180.86 L81.387,180.86 C48.082,180.425 21.436,153.074 21.871,119.769 L22.367,81.612 C22.802,48.307 50.155,21.66 83.457,22.095 C116.765,22.53 143.411,49.881 142.976,83.186 L142.478,121.343 C142.043,154.648 114.692,181.295 81.387,180.86" fill="#8A6754"/>
    <path d="M73.504,183.29 C73.504,183.29 80.574,186.118 91.429,183.333 C91.681,183.268 91.203,178.257 91.203,178.257 C91.203,178.257 73.504,178.216 73.504,178.216 C73.474,178.203 73.475,183.231 73.504,183.29 z" fill="#8A6754"/>
    <path d="M79.778,177.119 L79.778,177.119 C47.154,176.695 21.051,149.988 21.477,117.468 L21.963,80.209 C22.389,47.689 49.184,21.67 81.806,22.095 C114.433,22.52 140.535,49.226 140.109,81.747 L139.621,119.005 C139.195,151.525 112.403,177.544 79.778,177.119" fill="#AD8166"/>
    <g>
      <path d="M71.066,195.549 C71.066,195.549 59.411,209.318 59.411,211.621 C59.411,213.924 65.499,218.685 65.499,218.685 C65.499,218.685 55.446,226.348 55.446,226.348 C55.446,226.348 70.183,255.68 70.183,255.68 C70.183,255.68 71.066,195.549 71.066,195.549 z" fill="#168B76"/>
      <path d="M71.066,195.549 C71.066,195.549 59.411,209.318 59.411,211.621 C59.411,213.924 65.499,218.685 65.499,218.685 C65.499,218.685 55.446,226.348 55.446,226.348 C55.446,226.348 70.183,255.68 70.183,255.68 C70.183,255.68 71.066,195.549 71.066,195.549 z" fill-opacity="0" stroke="#4C545B" stroke-width="3" stroke-linejoin="round"/>
    </g>
    <path d="M81.887,181.36 L81.887,181.36 C48.582,180.925 21.936,153.574 22.371,120.269 L22.867,82.112 C23.302,48.807 50.655,22.16 83.957,22.595 C117.265,23.03 143.911,50.381 143.476,83.686 L142.978,121.843 C142.543,155.148 115.192,181.795 81.887,181.36 z" fill-opacity="0" stroke="#4C545B" stroke-width="3" stroke-linecap="round" stroke-miterlimit="10"/>
    <path d="M22.367,78.612 C112.465,71.799 124.85,52.372 132.579,45.152 C140.307,37.933 128.367,35.587 128.367,35.587 C128.367,35.587 100.85,34.22 100.85,34.22 C100.85,34.22 42.773,45.836 42.773,46.177 C42.773,46.519 26.375,56.084 26.375,56.084" fill="#8A6754"/>
    <path d="M136.404,40.546 C136.642,40.84 95.03,69.454 18.819,74.971 C18.819,74.971 26.606,30.748 69.985,17.131 C69.985,17.131 114.296,13.276 136.404,40.546 z" fill="#121111"/>
    <path d="M80.702,119.115 C80.702,119.115 81.295,120.547 81.839,120.311 C82.386,120.069 90.024,116.788 92.359,110.064 L89.782,109.316" fill="#765A4A" fill-opacity="0.645"/>
    <path d="M82.226,94.646 C82.226,94.646 85.242,107.223 89.782,109.319 C89.782,109.319 84.891,118.747 80.7,117.699" fill="#AD8166"/>
    <path d="M82.726,94.854 C82.726,94.854 85.742,107.431 90.282,109.526 C90.282,109.526 85.391,118.954 81.2,117.907" fill-opacity="0" stroke="#4C545B" stroke-width="3" stroke-linecap="round" stroke-miterlimit="10"/>
    <path d="M76.189,150.608 C76.189,150.608 80.034,155.438 88.122,154.898" fill-opacity="0" stroke="#4C545B" stroke-width="3" stroke-linecap="round" stroke-miterlimit="10"/>
    <path d="M98.772,255.598 C98.772,255.598 112.625,228.089 112.625,228.089 C112.625,228.089 110.172,225.848 110.172,225.848 C110.172,225.848 96.547,246.225 96.547,246.225 C96.547,246.225 94.859,254.391 94.859,254.391 C94.859,254.391 99.328,255.598 98.772,255.598 z" fill="#154E41"/>
    <path d="M103.156,220.989 C110.921,213.358 109.015,213.311 109.015,213.311 C109.015,213.311 107.8,210.772 106.221,210.68 C104.642,210.587 101.206,215.695 101.206,215.695 C101.206,215.695 99.069,218.667 99.069,218.667" fill="#154E41"/>
    <g>
      <path d="M95.551,196.061 C95.551,196.061 106.9,209.318 106.9,211.621 C106.9,213.924 100.811,218.685 100.811,218.685 C100.811,218.685 110.865,226.348 110.865,226.348 C110.865,226.348 95.551,254.891 95.551,254.891 C95.551,254.891 95.551,196.061 95.551,196.061 z" fill="#168B76"/>
      <path d="M95.551,196.061 C95.551,196.061 106.9,209.318 106.9,211.621 C106.9,213.924 100.811,218.685 100.811,218.685 C100.811,218.685 110.865,226.348 110.865,226.348 C110.865,226.348 95.551,254.891 95.551,254.891 C95.551,254.891 95.551,196.061 95.551,196.061 z" fill-opacity="0" stroke="#4C545B" stroke-width="3" stroke-linejoin="round"/>
    </g>
    <g id="Eyes">
      <path d="M107.211,86.863 C107.211,86.863 115.871,77.339 124.826,86.571" fill-opacity="0" stroke="#4C545B" stroke-width="3" stroke-linecap="round" stroke-miterlimit="10"/>
      <path d="M41.174,86.863 C41.174,86.863 49.835,77.339 58.789,86.571" fill-opacity="0" stroke="#4C545B" stroke-width="3" stroke-linecap="round" stroke-miterlimit="10"/>
    </g>
    <path d="M149.641,203.548 L152.13,67.38" fill="#333333"/>
    <path d="M127.367,39.346 C127.367,39.346 126.04,154.44 138.464,152.437 C143.428,151.636 149.641,150.607 149.641,150.607 L144.648,52.378 L135.371,39.567" fill="#121111"/>
    <path d="M62.359,192.623 C62.359,192.623 37.261,215.359 9.573,213.19 C6.247,212.929 12.416,196.346 11.522,187.647" fill="#121111"/>
    <path d="M121.362,42.507 C118.53,42.79 106.401,53.552 91.933,54.968" fill-opacity="0" stroke="#3C3B3B" stroke-width="3" stroke-linecap="round"/>
    <path d="M84.262,57.8 C84.262,57.8 73.985,61.199 68.119,62.332" fill-opacity="0" stroke="#3C3B3B" stroke-width="3" stroke-linecap="round"/>
    <path d="M58.438,184.72 C58.438,184.72 56.902,190.123 52.806,194.544" fill-opacity="0" stroke="#3C3B3B" stroke-width="3" stroke-linecap="round"/>
    <path d="M47.867,199.985 C47.867,199.985 44.916,202.494 42.998,202.641" fill-opacity="0" stroke="#3C3B3B" stroke-width="3" stroke-linecap="round"/>
    <path d="M118.915,179.573 C118.915,179.573 117.485,186.334 119.392,188.147" fill-opacity="0" stroke="#3C3B3B" stroke-width="3" stroke-linecap="round"/>
    <path d="M149.458,136.07 C149.458,136.07 151.584,170.144 148.337,174.431" fill-opacity="0" stroke="#3C3B3B" stroke-width="3" stroke-linecap="round"/>
    <g>
      <path d="M138.626,254.891 C138.626,254.891 138.626,227.383 138.626,227.383" fill="#FFFFFF"/>
      <path d="M138.626,254.891 C138.626,254.891 138.626,227.383 138.626,227.383" fill-opacity="0" stroke="#3B4249" stroke-width="3" stroke-linecap="round"/>
    </g>
    <path d="M66.414,195.126 L72.909,195.065 C72.909,195.065 72.761,188.787 72.761,188.787" fill-opacity="0" stroke="#4C545B" stroke-width="2.5" stroke-linecap="round" stroke-linejoin="round"/>
    <path d="M99.996,195.181 L93.007,195.099 C93.007,195.099 93.28,188.147 93.28,188.147" fill-opacity="0" stroke="#4C545B" stroke-width="2.5" stroke-linecap="round" stroke-linejoin="round"/>
    <path d="M27.059,157.681 L28.164,71.979 L15.356,74.63 L15.356,156.135" fill="#121111"/>
    <path d="M21.801,164.832 C21.801,169.363 24.693,201.066 18.91,204.048" fill-opacity="0" stroke="#3C3B3B" stroke-width="3" stroke-linecap="round"/>
    <path d="M59.941,12.374 C57.173,12.815 46.389,14.343 31.451,31.251" fill-opacity="0" stroke="#3C3B3B" stroke-width="3" stroke-linecap="round"/>
    <path d="M27.393,35.923 C26.808,36.73 23.72,39.715 22.551,45.338" fill-opacity="0" stroke="#3C3B3B" stroke-width="3" stroke-linecap="round"/>
    <path d="M28.164,254.477 C28.164,254.477 28.164,226.969 28.164,226.969" fill-opacity="0" stroke="#3B4249" stroke-width="3" stroke-linecap="round"/>
  </g>
</svg>
