<?xml version="1.0" encoding="utf-8"?>
<!-- Generator: Adobe Illustrator 21.0.0, SVG Export Plug-In . SVG Version: 6.00 Build 0)  -->
<svg version="1.1" id="Layer_1" xmlns="http://www.w3.org/2000/svg" xmlns:xlink="http://www.w3.org/1999/xlink" x="0px" y="0px"
	 viewBox="0 0 85.6 85.6" style="enable-background:new 0 0 85.6 85.6;" xml:space="preserve">
<style type="text/css">
	.st0{fill:none;stroke:#000000;stroke-miterlimit:10;}
	.st1{fill:none;stroke:#777777;stroke-miterlimit:10;}
</style>
<title>greyCapCircle</title>
<path class="st0" d="M95.2-29.4"/>
<path class="st1" d="M45.3,20.6l28.3,12.1c1.4,0.6,1.3,1.8-0.2,2.3L44.2,45.4c-0.7,0.3-1.5,0.3-2.2,0L11.2,33.2
	c-0.3-0.1-0.3-0.3,0-0.4l31.7-12.2C43.7,20.3,44.5,20.3,45.3,20.6z"/>
<path class="st1" d="M21.3,39.5l1.6,12.9c0,0.1,0,0.1,0.1,0.1l20.4,12.7c0.1,0,0.1,0,0.2,0L64,53c0,0,0.1-0.1,0.1-0.1l2.4-13
	c0-0.1-0.1-0.3-0.3-0.2l-22.7,8.6c0,0-0.1,0-0.1,0l-21.9-9C21.4,39.2,21.3,39.3,21.3,39.5z"/>
<path class="st1" d="M16.8,36.5"/>
<path class="st1" d="M15.9,35.2"/>
<line class="st1" x1="17" y1="35.3" x2="17" y2="52"/>
<ellipse transform="matrix(0.9901 -0.14 0.14 0.9901 -7.2254 2.9122)" class="st1" cx="17.1" cy="52.8" rx="1.2" ry="1.2"/>
<path class="st1" d="M16.4,53.9l-0.9,4.2c-0.1,0.5,0.2,0.9,0.6,1c0.1,0,0.1,0,0.2,0l1.6,0.1c0.4,0.1,0.8-0.2,0.8-0.6
	c0-0.1,0-0.2,0-0.3l-0.8-4.6"/>
</svg>
