<?xml version="1.0" encoding="UTF-8"?>
<!DOCTYPE svg PUBLIC "-//W3C//DTD SVG 1.1//EN" "http://www.w3.org/Graphics/SVG/1.1/DTD/svg11.dtd">
<svg version="1.1" xmlns="http://www.w3.org/2000/svg" xmlns:xlink="http://www.w3.org/1999/xlink" x="0" y="0" width="64" height="96" viewBox="0, 0, 64, 96">
  <g id="Group">
    <g id="Teacher_">
      <path d="M28.197,70.882 C28.197,70.882 35.967,70.839 35.967,70.839 C35.967,70.839 35.968,64.127 35.968,64.127 C35.968,64.127 28.033,64.237 28.033,64.237" fill="#FCEDE4"/>
      <path d="M8.488,42.598 C8.488,42.598 8.369,47.77 9.562,48.775 C10.756,49.78 11.553,54.066 12.325,54.199 C13.097,54.331 16.345,58.95 16.345,58.95 C16.345,58.95 28.033,66.055 32,64.727 C35.967,63.4 42.095,64.162 43.728,61.273" fill="#DCC3B5"/>
      <path d="M31.593,65.595 L31.593,65.595 C18.498,65.424 8.021,54.67 8.192,41.575 L8.387,26.572 C8.558,13.477 19.313,3 32.407,3.171 C45.503,3.342 55.98,14.096 55.809,27.191 L55.613,42.194 C55.442,55.289 44.688,65.766 31.593,65.595" fill="#DCC3B5"/>
      <path d="M28.298,66.536 C28.298,66.536 31.603,67.627 35.872,66.532 C35.971,66.506 35.553,64.601 35.553,64.601 C35.553,64.601 28.113,64.601 28.113,64.601" fill="#DCC3B5"/>
      <path d="M31.115,64.125 L31.115,64.125 C18.287,63.958 8.024,53.457 8.192,40.67 L8.383,26.021 C8.55,13.234 19.086,3.004 31.912,3.171 C44.741,3.338 55.004,13.839 54.836,26.625 L54.644,41.275 C54.477,54.061 43.943,64.292 31.115,64.125" fill="#FBE9DE"/>
      <g>
        <path d="M27.988,16.836 C27.988,16.836 25.643,19.144 8.81,22.297 L8.81,19.879 L11.556,16.556 L26.655,15.288 L27.988,16.836 z" fill="#DCC3B5"/>
        <path d="M26.655,15.287 C26.655,15.287 31.866,24.249 55.763,24.884 L55.517,21 L24.193,12.104 L26.655,15.287 z" fill="#DCC3B5"/>
      </g>
      <path d="M31.593,65.595 L31.593,65.595 C18.498,65.424 8.021,54.67 8.192,41.575 L8.387,26.572 C8.558,13.477 19.313,3 32.407,3.171 C45.503,3.342 55.98,14.096 55.809,27.191 L55.613,42.194 C55.442,55.289 44.688,65.766 31.593,65.595 z" fill-opacity="0" stroke="#000000" stroke-width="1" stroke-linecap="round" stroke-miterlimit="10"/>
      <path d="M31.385,41.318 C31.385,41.318 31.618,41.881 31.832,41.788 C32.047,41.693 35.05,40.403 35.968,37.759 L34.955,37.465" fill="#DCC3B5"/>
      <g>
        <path d="M5.81,71.454 C5.81,71.454 11.376,80.437 11.943,94.981 L52.684,94.981 C53.251,80.437 58.491,71.703 58.491,71.703 L5.81,71.454 z" fill="#0C2B02"/>
        <path d="M5.81,71.454 C5.81,71.454 11.376,80.437 11.943,94.981 L52.684,94.981 C53.251,80.437 58.491,71.703 58.491,71.703 L5.81,71.454 z" fill-opacity="0" stroke="#000000" stroke-width="1" stroke-linecap="round"/>
      </g>
      <path d="M31.984,31.697 C31.984,31.697 33.17,36.642 34.955,37.466 C34.955,37.466 33.032,41.173 31.384,40.761" fill="#FBE9DE"/>
      <g>
        <path d="M42.722,70.882 C42.722,70.882 33.632,83.727 32.25,83.899 C30.868,84.071 21.857,72.678 22.271,71.063" fill="#FFFFFF"/>
        <path d="M42.722,70.882 C42.722,70.882 33.632,83.727 32.25,83.899 C30.868,84.071 21.857,72.678 22.271,71.063" fill-opacity="0" stroke="#000000" stroke-width="1"/>
      </g>
      <path d="M31.984,31.697 C31.984,31.697 33.17,36.642 34.955,37.466 C34.955,37.466 33.032,41.173 31.384,40.761" fill-opacity="0" stroke="#000000" stroke-width="1" stroke-linecap="round" stroke-miterlimit="10"/>
      <path d="M29.31,53.504 C29.31,53.504 30.822,55.403 34.002,55.191" fill-opacity="0" stroke="#000000" stroke-width="1" stroke-linecap="round" stroke-miterlimit="10"/>
      <path d="M54.838,28.376 C54.838,33.884 50.373,38.349 44.865,38.349 C39.358,38.349 34.892,33.884 34.892,28.376 C34.892,22.868 39.358,18.403 44.865,18.403 C50.373,18.403 54.838,22.868 54.838,28.376 z" fill-opacity="0" stroke="#000000" stroke-width="1" stroke-linecap="round" stroke-miterlimit="10"/>
      <path d="M41.321,28.716 C41.321,28.716 45.259,21.5 48.874,28.716" fill-opacity="0" stroke="#000000" stroke-width="0.75" stroke-linecap="round" stroke-miterlimit="10"/>
      <path d="M15.159,28.671 C15.159,28.671 19.097,21.455 22.712,28.671" fill-opacity="0" stroke="#000000" stroke-width="0.75" stroke-linecap="round" stroke-miterlimit="10"/>
      <path d="M30.086,27.397 C30.086,33.167 25.408,37.845 19.638,37.845 C13.868,37.845 9.19,33.167 9.19,27.397 C9.19,21.626 13.868,16.949 19.638,16.949 C25.408,16.949 30.086,21.626 30.086,27.397 z" fill-opacity="0" stroke="#000000" stroke-width="1" stroke-linecap="round" stroke-miterlimit="10"/>
      <path d="M43.203,53.346 C43.203,53.346 42.822,53.979 41.133,54.198 C39.445,54.417 32.725,53.164 32,51.694 C32,51.694 27.843,54.145 22.179,54.635 C22.179,54.635 19.198,53.795 18.584,52.347 C17.969,50.9 31.832,47.01 31.832,47.01" fill="#DCC3B5"/>
      <g>
        <path d="M31.669,44.719 C31.669,44.719 35.426,40.211 37.964,44.719 C40.504,49.227 42.368,49.307 43.606,49.307 C44.845,49.307 45.991,49.146 46.892,47.939 C47.793,46.731 46.063,53.766 41.566,52.942 C41.566,52.942 31.669,52.054 31.669,48.386" fill="#5E3A00"/>
        <path d="M31.669,44.719 C31.669,44.719 35.426,40.211 37.964,44.719 C40.504,49.227 42.368,49.307 43.606,49.307 C44.845,49.307 45.991,49.146 46.892,47.939 C47.793,46.731 46.063,53.766 41.566,52.942 C41.566,52.942 31.669,52.054 31.669,48.386" fill-opacity="0" stroke="#000000" stroke-width="1"/>
      </g>
      <path d="M30.086,27.264 C30.086,27.264 32.268,24.223 34.892,27.264" fill-opacity="0" stroke="#000000" stroke-width="0.75" stroke-linecap="round" stroke-miterlimit="10"/>
      <path d="M32.098,44.602 C32.098,44.602 28.341,40.094 25.802,44.602 C23.263,49.109 21.399,49.189 20.16,49.189 C18.922,49.189 17.775,49.028 16.875,47.822 C15.973,46.614 17.704,53.648 22.201,52.824 C22.201,52.824 32.098,51.936 32.098,48.269" fill="#5E3A00"/>
      <path d="M31.832,44.601 C31.832,44.601 28.14,40.093 25.645,44.601 C23.149,49.109 21.317,49.189 20.1,49.189 C18.883,49.189 17.756,49.028 16.871,47.821 C15.985,46.613 17.686,53.648 22.105,52.824 C22.105,52.824 31.832,51.936 31.832,48.268" fill-opacity="0" stroke="#000000" stroke-width="1" stroke-linecap="round" stroke-miterlimit="10"/>
      <path d="M8.854,20.186 C8.854,20.186 24.964,17.136 28.465,14.692 C31.966,12.249 24.238,2.56 24.238,2.56 C24.238,2.56 10.862,6.914 8.854,20.186" fill="#7C4928"/>
      <path d="M9.377,20.186 C9.377,20.186 25.487,17.136 28.988,14.692 C32.489,12.249 24.761,2.56 24.761,2.56 C24.761,2.56 11.385,6.914 9.377,20.186 z" fill-opacity="0" stroke="#000000" stroke-width="1" stroke-linecap="round" stroke-miterlimit="10"/>
      <path d="M23.101,2.936 C23.101,2.936 23.245,11.057 30.91,16.862 C35.674,20.47 43.344,23.184 55.691,22.497 C55.691,22.497 50.552,-6.594 23.101,2.936" fill="#7C4928"/>
      <path d="M22.922,2.936 C22.922,2.936 23.066,11.057 30.731,16.862 C35.495,20.47 43.165,23.184 55.512,22.497 C55.512,22.497 50.373,-6.594 22.922,2.936 z" fill-opacity="0" stroke="#000000" stroke-width="1" stroke-linecap="round" stroke-miterlimit="10"/>
      <path d="M20.138,8.068 C20.138,8.068 20.829,13.845 23.101,14.116" fill-opacity="0" stroke="#4C3500" stroke-width="1" stroke-linecap="round" stroke-miterlimit="10"/>
      <g>
        <path d="M28.033,65.4 L28.033,70.839 L8.588,70.839 C8.588,70.839 1.261,70.231 1.058,77.94 C0.855,85.649 1.058,94.981 1.058,94.981" fill-opacity="0" stroke="#000000" stroke-width="1" stroke-linecap="round" stroke-linejoin="round" stroke-miterlimit="10"/>
        <path d="M35.967,65.4 L35.967,70.839 L55.412,70.839 C55.412,70.839 62.739,70.231 62.942,77.94 C63.145,85.649 62.942,94.981 62.942,94.981" fill-opacity="0" stroke="#000000" stroke-width="1" stroke-linecap="round" stroke-linejoin="round" stroke-miterlimit="10"/>
      </g>
      <path d="M12.736,14.748 C12.736,14.748 16.347,16.821 20.138,16.145" fill-opacity="0" stroke="#4C3500" stroke-width="1" stroke-linecap="round" stroke-miterlimit="10"/>
      <path d="M29.385,4.277 C29.385,4.277 27.783,13.304 39.397,17.547" fill-opacity="0" stroke="#4C3500" stroke-width="1" stroke-linecap="round" stroke-miterlimit="10"/>
      <path d="M41.321,8.79 C41.321,8.79 47.851,10.176 51.461,19.099" fill-opacity="0" stroke="#4C3500" stroke-width="1" stroke-linecap="round" stroke-miterlimit="10"/>
      <path d="M44.33,15.594 C44.33,15.594 46.738,16.355 46.392,18.801" fill-opacity="0" stroke="#4C3500" stroke-width="1" stroke-linecap="round" stroke-miterlimit="10"/>
      <path d="M21.707,51.376 C21.707,51.376 23.127,51.44 24.797,50.823" fill-opacity="0" stroke="#322200" stroke-width="1" stroke-linecap="round" stroke-miterlimit="10"/>
      <path d="M34.955,44.683 C34.955,44.683 35.203,46.523 35.967,47.01" fill="#5E3A00"/>
      <path d="M34.955,44.683 C34.955,44.683 35.203,46.523 35.967,47.01" fill-opacity="0" stroke="#000000" stroke-width="1" stroke-linecap="round" stroke-miterlimit="10"/>
      <path d="M39.396,50.823 C39.396,50.823 39.643,51.207 41.321,50.823" fill="#5E3A00"/>
      <path d="M39.396,50.823 C39.396,50.823 39.643,51.207 41.321,50.823" fill-opacity="0" stroke="#000000" stroke-width="1" stroke-linecap="round" stroke-miterlimit="10"/>
      <path d="M29.31,44.683 C29.31,44.683 28.543,45.706 28.033,46.474" fill="#5E3A00"/>
      <path d="M30.913,71.454 C30.913,71.454 30.854,82.732 30.854,82.809" fill-opacity="0" stroke="#000000" stroke-width="0.5" stroke-linecap="round"/>
      <path d="M29.31,44.683 C29.31,44.683 28.543,45.706 28.033,46.474" fill-opacity="0" stroke="#000000" stroke-width="1" stroke-linecap="round" stroke-miterlimit="10"/>
      <g id="Cuffs">
        <g>
          <path d="M32.026,71.008 C32.026,71.008 35.777,69.116 35.705,66.243 C35.633,63.371 39.702,71.008 39.702,71.008 C39.702,71.008 34.78,74.516 34.78,74.516 C34.78,74.516 34.821,71.915 32.026,71.008 z" fill="#FFFFFF"/>
          <path d="M32.026,71.008 C32.026,71.008 35.777,69.116 35.705,66.243 C35.633,63.371 39.702,71.008 39.702,71.008 C39.702,71.008 34.78,74.516 34.78,74.516 C34.78,74.516 34.821,71.915 32.026,71.008 z" fill-opacity="0" stroke="#000000" stroke-width="0.5"/>
        </g>
        <g>
          <path d="M31.974,71.008 C31.974,71.008 28.223,69.116 28.295,66.243 C28.367,63.371 24.298,71.008 24.298,71.008 C24.298,71.008 29.22,74.516 29.22,74.516 C29.22,74.516 29.179,71.915 31.974,71.008 z" fill="#FFFFFF"/>
          <path d="M31.974,71.008 C31.974,71.008 28.223,69.116 28.295,66.243 C28.367,63.371 24.298,71.008 24.298,71.008 C24.298,71.008 29.22,74.516 29.22,74.516 C29.22,74.516 29.179,71.915 31.974,71.008 z" fill-opacity="0" stroke="#000000" stroke-width="0.5"/>
        </g>
      </g>
      <g>
        <path d="M1.058,94.981 C1.058,94.981 62.942,94.981 62.942,94.981" fill="#0C2B02"/>
        <path d="M1.058,94.981 C1.058,94.981 62.942,94.981 62.942,94.981" fill-opacity="0" stroke="#000000" stroke-width="1"/>
      </g>
      <g id="Bow_Tie">
        <g>
          <path d="M30.573,74.271 L26.125,76.901 L26.125,69.516 L30.392,71.516" fill="#FFFFFF"/>
          <path d="M30.573,74.271 L26.125,76.901 L26.125,69.516 L30.392,71.516" fill-opacity="0" stroke="#000000" stroke-width="0.5" stroke-linecap="round" stroke-linejoin="round" stroke-miterlimit="10"/>
        </g>
        <g>
          <path d="M33.428,74.271 L37.876,76.901 L37.876,69.516 L33.609,71.516" fill="#FFFFFF"/>
          <path d="M33.428,74.271 L37.876,76.901 L37.876,69.516 L33.609,71.516" fill-opacity="0" stroke="#000000" stroke-width="0.5" stroke-linecap="round" stroke-linejoin="round" stroke-miterlimit="10"/>
        </g>
        <g>
          <path d="M29.778,72.826 L28.349,72.826" fill="#FFFFFF"/>
          <path d="M29.778,72.826 L28.349,72.826" fill-opacity="0" stroke="#000000" stroke-width="0.5" stroke-linecap="round" stroke-linejoin="round" stroke-miterlimit="10"/>
        </g>
        <g>
          <path d="M33.976,72.826 L35.499,72.826" fill="#FFFFFF"/>
          <path d="M33.976,72.826 L35.499,72.826" fill-opacity="0" stroke="#000000" stroke-width="0.5" stroke-linecap="round" stroke-linejoin="round" stroke-miterlimit="10"/>
        </g>
        <g>
          <path d="M33.976,72.826 C33.976,73.849 33.036,74.679 31.876,74.679 C30.718,74.679 29.778,73.849 29.778,72.826 C29.778,72.314 30.013,71.851 30.393,71.515 C30.772,71.18 31.298,70.972 31.876,70.972 C33.035,70.972 33.976,71.802 33.976,72.826 z" fill="#FFFFFF"/>
          <path d="M33.976,72.826 C33.976,73.849 33.036,74.679 31.876,74.679 C30.718,74.679 29.778,73.849 29.778,72.826 C29.778,72.314 30.013,71.851 30.393,71.515 C30.772,71.18 31.298,70.972 31.876,70.972 C33.035,70.972 33.976,71.802 33.976,72.826 z" fill-opacity="0" stroke="#000000" stroke-width="0.5" stroke-linecap="round" stroke-miterlimit="10"/>
        </g>
      </g>
      <path d="M31.668,77.821 C31.512,77.821 31.385,77.694 31.385,77.538 C31.385,77.381 31.512,77.255 31.668,77.255 C31.824,77.255 31.951,77.381 31.951,77.538 C31.951,77.694 31.824,77.821 31.668,77.821 z" fill-opacity="0" stroke="#000000" stroke-width="0.25"/>
      <path d="M31.668,80.474 C31.512,80.474 31.385,80.347 31.385,80.191 C31.385,80.034 31.512,79.908 31.668,79.908 C31.824,79.908 31.951,80.034 31.951,80.191 C31.951,80.347 31.824,80.474 31.668,80.474 z" fill-opacity="0" stroke="#000000" stroke-width="0.25"/>
      <path d="M31.667,83.228 C31.511,83.228 31.384,83.101 31.384,82.945 C31.384,82.789 31.511,82.662 31.667,82.662 C31.823,82.662 31.95,82.789 31.95,82.945 C31.95,83.101 31.823,83.228 31.667,83.228 z" fill-opacity="0" stroke="#000000" stroke-width="0.25"/>
    </g>
  </g>
</svg>
