<svg id="Layer_1" data-name="Layer 1" xmlns="http://www.w3.org/2000/svg" viewBox="0 0 66.44 66.44"><defs><style>.cls-1{fill:#6f3;}.cls-1,.cls-2{stroke:#003;}.cls-1,.cls-2,.cls-4{stroke-miterlimit:10;}.cls-2,.cls-3{fill:#fff;}.cls-4{fill:none;stroke:#fff;}</style></defs><title>continuityCircle</title><path class="cls-1" d="M16.59,40.44" transform="translate(-19.51 -4.22)"/><path class="cls-2" d="M53,37.68" transform="translate(-19.51 -4.22)"/><path class="cls-3" d="M42.23,31.4V42.7c0,4.28,1.9,6.09,4.45,6.09,2.83,0,4.64-1.87,4.64-6.09V31.4h2.49V42.53c0,5.86-3.09,8.27-7.22,8.27-3.91,0-6.85-2.24-6.85-8.16V31.4Z" transform="translate(-19.51 -4.22)"/><path class="cls-3" d="M62.88,43.48V32.18c0-4.28-1.9-6.09-4.45-6.09-2.83,0-4.64,1.87-4.64,6.09v11.3H51.3V32.35c0-5.86,3.08-8.27,7.22-8.27,3.91,0,6.85,2.23,6.86,8.15V43.48Z" transform="translate(-19.51 -4.22)"/><path class="cls-3" d="M40.85,21.52l-5.54,9.6a.34.34,0,0,0,.3.51H46.7a.34.34,0,0,0,.3-.51l-5.54-9.6A.34.34,0,0,0,40.85,21.52Z" transform="translate(-19.51 -4.22)"/><path class="cls-3" d="M64.6,53.26l5.54-9.6a.34.34,0,0,0-.3-.51H58.75a.34.34,0,0,0-.3.51L64,53.26A.34.34,0,0,0,64.6,53.26Z" transform="translate(-19.51 -4.22)"/><circle class="cls-4" cx="33.22" cy="33.22" r="32.72"/></svg>