<svg id="Layer_1" data-name="Layer 1" xmlns="http://www.w3.org/2000/svg" viewBox="0 0 41.88 57.63"><defs><style>.cls-1{fill:#151414;}.cls-1,.cls-2{stroke:#fff;stroke-miterlimit:10;}.cls-2{fill:none;stroke-linecap:round;}</style></defs><title>documents</title><rect class="cls-1" x="0.5" y="0.5" width="33.31" height="50" rx="2.36" ry="2.36"/><line class="cls-2" x1="7.73" y1="7.13" x2="26.57" y2="7.13"/><line class="cls-2" x1="4.6" y1="12.65" x2="10.87" y2="12.65"/><line class="cls-2" x1="12.91" y1="12.65" x2="28.76" y2="12.65"/><line class="cls-2" x1="4.6" y1="18.93" x2="22.14" y2="18.93"/><line class="cls-2" x1="25" y1="18.93" x2="28.76" y2="18.93"/><line class="cls-2" x1="4.6" y1="24.73" x2="10" y2="24.73"/><line class="cls-2" x1="13.69" y1="24.73" x2="19.42" y2="24.73"/><line class="cls-2" x1="23.11" y1="24.73" x2="28.76" y2="24.73"/><line class="cls-2" x1="4.27" y1="30.75" x2="28.76" y2="30.75"/><line class="cls-2" x1="14.98" y1="37.43" x2="28.46" y2="37.43"/><line class="cls-2" x1="21.54" y1="41.13" x2="28.46" y2="41.13"/><line class="cls-2" x1="21.54" y1="44.4" x2="28.46" y2="44.4"/><rect class="cls-1" x="8.07" y="7.13" width="33.31" height="50" rx="2.36" ry="2.36"/><line class="cls-2" x1="15.31" y1="13.77" x2="34.14" y2="13.77"/><line class="cls-2" x1="12.17" y1="19.28" x2="18.44" y2="19.28"/><line class="cls-2" x1="20.48" y1="19.28" x2="36.33" y2="19.28"/><line class="cls-2" x1="12.17" y1="25.56" x2="29.71" y2="25.56"/><line class="cls-2" x1="32.57" y1="25.56" x2="36.33" y2="25.56"/><line class="cls-2" x1="12.17" y1="31.36" x2="17.57" y2="31.36"/><line class="cls-2" x1="21.26" y1="31.36" x2="26.99" y2="31.36"/><line class="cls-2" x1="30.68" y1="31.36" x2="36.33" y2="31.36"/><line class="cls-2" x1="11.85" y1="37.38" x2="36.33" y2="37.38"/><line class="cls-2" x1="22.55" y1="44.06" x2="36.03" y2="44.06"/><line class="cls-2" x1="29.11" y1="47.77" x2="36.03" y2="47.77"/><line class="cls-2" x1="29.11" y1="51.03" x2="36.03" y2="51.03"/></svg>