<svg id="Layer_1" data-name="Layer 1" xmlns="http://www.w3.org/2000/svg" viewBox="0 0 529.55 371.65"><defs><style>.cls-1,.cls-6,.cls-9{fill:#161515;}.cls-1,.cls-6{stroke:#161515;}.cls-1,.cls-5,.cls-6,.cls-7,.cls-8{stroke-miterlimit:10;}.cls-1{stroke-width:3px;}.cls-2,.cls-3,.cls-4,.cls-5,.cls-8{fill:#fff;}.cls-3{font-size:241.69px;}.cls-3,.cls-4{font-family:Sacramento-Regular, Sacramento;}.cls-4{font-size:241px;}.cls-5,.cls-7,.cls-8{stroke:#fff;}.cls-6,.cls-7,.cls-8{stroke-width:0.25px;}.cls-7{fill:none;}</style></defs><title>Logo</title><rect class="cls-1" x="1.5" y="1.5" width="526.55" height="350.33"/><path class="cls-2" d="M153.76,0c-.33,47.88-.33,94.88,0,142.67" transform="translate(1.5 1.5)"/><path class="cls-2" d="M128.66,101.15c6.69.71,14.49,2.66,20.61,7.41v-48c-.45-1-11.23-12.13-16.54-12.86V-.14c9.47,1.77,17.58,8.6,21.12,20.9C157.08,8.63,165.81,1.21,175,.15V47.77c-2.76.42-6.87,3.56-10.32,6.65a70,70,0,0,0-6.31,6.31v47.64A38,38,0,0,1,178.87,101a102.11,102.11,0,0,0-25.1,41.67C148.79,125.82,139,112.51,128.66,101.15Z" transform="translate(1.5 1.5)"/><text class="cls-3" transform="translate(1.5 243.72)">E</text><rect class="cls-1" x="128.71" y="101.78" width="95.95" height="55.79"/><text class="cls-4" transform="translate(181.04 228.56)">rroh</text><line class="cls-2" x1="152.85" y1="97.32" x2="154.83" y2="99.57"/><path class="cls-2" d="M147.82,99.35l2,2.25a5,5,0,0,0,8.54-3.54,5.51,5.51,0,0,0-1.46-3.54l-2-2.25a5,5,0,0,0-8.54,3.54,5.51,5.51,0,0,0,1.46,3.54Z" transform="translate(1.5 1.5)"/><path class="cls-2" d="M521.49,207.21c-5.57-3.78-11.54-9.17-14.7-16.26l-10.21,19.22-37.23,70.11L454,290.4c-.08,1.1,4.24,16,8.59,19.07l-22.39,42.15c-7.57-5.94-11.56-15.73-8.92-28.24-8.54,9.21-19.77,11.72-28.39,8.43l22.39-42.15c2.63.92,7.75.06,12.24-1.06A70.52,70.52,0,0,0,446,286l5.29-10,37.23-70.11,10.14-19.09a38,38,0,0,1-21.56-3.16,102.06,102.06,0,0,0,41.68-25C515.3,175.94,517.72,192.35,521.49,207.21Z" transform="translate(1.5 1.5)"/><rect class="cls-1" x="374.41" y="232.49" width="153.64" height="119.33"/><path class="cls-5" d="M470.78,229" transform="translate(1.5 1.5)"/><polyline class="cls-6" points="486.3 224.74 486.07 224.93 485.84 225.14 485.43 225.45 485.02 225.78 484.61 226.08 484.17 226.39 483.7 226.72 483.2 226.98 482.71 227.28 482.13 227.65 481.63 227.93 480.77 228.41 480.13 228.74 479.31 229.09 478.43 229.47 477.92 229.91 477.35 231.32 488.15 231.32 495.92 216.06 495.4 216.64 494.63 217.33"/><path class="cls-7" d="M497.55,209" transform="translate(1.5 1.5)"/><path class="cls-7" d="M485.25,222.9" transform="translate(1.5 1.5)"/><polygon class="cls-8" points="496.22 214.72 495.8 215.21 495.55 215.62 495.08 216.12 494.56 216.63 494.17 217.06 493.8 217.5 493.34 217.98 492.9 218.48 492.4 219.06 491.87 219.63 491.21 220.31 490.69 220.77 490.15 221.22 489.54 221.71 489.13 222.05 488.8 222.33 488.46 222.62 488.05 222.93 487.7 223.16 487.33 223.46 486.98 223.73 486.52 224.08 496.22 214.72"/><rect class="cls-9" x="152.61" y="-0.08" width="2.42" height="16.78" transform="translate(309.15 18.12) rotate(180)"/><rect class="cls-1" x="153.28" y="8.82" width="0.43" height="0.43" transform="translate(172.85 -142.18) rotate(93.3)"/><rect class="cls-9" x="155.06" y="18.2" width="0.31" height="3.09"/><rect class="cls-9" x="155.12" y="21.28" width="0.2" height="0.17"/><rect class="cls-9" x="155.15" y="21.45" width="0.21" height="0.09"/><rect class="cls-9" x="155.15" y="21.54" width="0.12" height="0.02"/></svg>