<svg id="Layer_1" data-name="Layer 1" xmlns="http://www.w3.org/2000/svg" viewBox="0 0 85.59 85.59"><defs><style>.cls-1{fill:#fff;stroke:#000;}.cls-1,.cls-2{stroke-miterlimit:10;}.cls-2{fill:none;stroke:#fff;}</style></defs><title>capCircle</title><path class="cls-1" d="M184.87-21.22" transform="translate(-4.62 -5.15)"/><path class="cls-2" d="M49.9,25.74,78.17,37.85c1.41.6,1.31,1.78-.19,2.31L48.8,50.51a3.18,3.18,0,0,1-2.24,0L15.88,38.27c-.27-.11-.27-.28,0-.38L47.56,25.69A3.59,3.59,0,0,1,49.9,25.74Z" transform="translate(-4.62 -5.15)"/><polygon class="cls-2" points="21.23 39.17 22.86 52.44 43.43 65.23 64.1 52.98 66.62 39.61 43.51 48.37 21.23 39.17"/><path class="cls-2" d="M21.43,41.66" transform="translate(-4.62 -5.15)"/><path class="cls-2" d="M20.56,40.33" transform="translate(-4.62 -5.15)"/><line class="cls-2" x1="17.05" y1="35.27" x2="17.05" y2="52.01"/><circle class="cls-2" cx="21.68" cy="58.07" r="1.24" transform="matrix(0.99, -0.14, 0.14, 0.99, -12.49, -1.57)"/><path class="cls-2" d="M21,59.09l-.87,4.18a.85.85,0,0,0,.79,1.05l1.59.12a.74.74,0,0,0,.82-.91l-.83-4.58" transform="translate(-4.62 -5.15)"/><circle class="cls-2" cx="42.8" cy="42.8" r="42.3"/></svg>