<svg id="Layer_1" data-name="Layer 1" xmlns="http://www.w3.org/2000/svg" viewBox="0 0 86.62 87.07"><defs><style>.cls-1{fill:#fecd32;}.cls-1,.cls-10,.cls-2,.cls-4,.cls-5,.cls-7,.cls-8,.cls-9{fill-rule:evenodd;}.cls-2{fill:#ffce32;}.cls-3{font-size:6px;}.cls-3,.cls-6{fill:#231f20;font-family:PoiretOne-Regular, Poiret One;}.cls-4{fill:#fdb913;}.cls-5{fill:#fcb817;}.cls-6{font-size:5px;}.cls-7{fill:#e7b221;}.cls-8{fill:#e8b221;}.cls-9{fill:gold;}.cls-10{fill:#fed700;}</style></defs><title>ProblemCircles</title><path class="cls-1" d="M45.55.94A43.67,43.67,0,0,0,14.17,12.82l7.52,8a32.75,32.75,0,0,1,23.53-8.92Z" transform="translate(-1.13 -0.91)"/><path class="cls-2" d="M76.17,14.89A44,44,0,0,0,45.51.95l-.38,11a33,33,0,0,1,23,10.45Z" transform="translate(-1.13 -0.91)"/><text class="cls-3" transform="translate(34.53 9.26) rotate(-17.37)">H</text><text class="cls-3" transform="matrix(0.99, -0.13, 0.13, 0.99, 38.58, 8.05)">a</text><text class="cls-3" transform="translate(41.86 7.63) rotate(-0.65)">n</text><text class="cls-3" transform="translate(44.89 7.58) rotate(5.59)">d</text><text class="cls-3" transform="translate(48.16 7.89) rotate(12.64)">o</text><text class="cls-3" transform="translate(51.25 8.62) rotate(18.7)">f</text><text class="cls-3" transform="translate(52.61 9.08) rotate(23.37)">f</text><path class="cls-4" d="M87.72,46.36a44,44,0,0,0-11.66-31.6L68,22.23a33,33,0,0,1,8.75,23.7Z" transform="translate(-1.13 -0.91)"/><path class="cls-5" d="M73.87,76.82A44,44,0,0,0,87.75,46.13l-11-.36a33,33,0,0,1-10.41,23Z" transform="translate(-1.13 -0.91)"/><text class="cls-3" transform="matrix(-0.02, 1, -1, -0.02, 78.55, 48.53)"> </text><text class="cls-6" transform="translate(77.01 32.01) rotate(61.14)">C</text><text class="cls-6" transform="matrix(0.32, 0.95, -0.95, 0.32, 78.59, 34.97)">o</text><text class="cls-6" transform="translate(79.42 37.46) rotate(77.92)">n</text><text class="cls-6" transform="translate(79.96 39.96) rotate(83.4)">n</text><text class="cls-6" transform="translate(80.25 42.5) rotate(88.3)">e</text><text class="cls-6" transform="translate(80.32 44.89) rotate(93.07)">c</text><text class="cls-6" transform="matrix(-0.12, 0.99, -0.99, -0.12, 80.18, 47.23)">t</text><text class="cls-6" transform="translate(80.04 48.37) rotate(99.37)">i</text><text class="cls-6" transform="translate(79.94 49.19) rotate(103.72)">v</text><text class="cls-6" transform="translate(79.34 51.51) rotate(108.94)">i</text><text class="cls-6" transform="matrix(-0.39, 0.92, -0.92, -0.39, 79.07, 52.33)">t</text><text class="cls-6" transform="matrix(-0.53, 0.85, -0.85, -0.53, 78.72, 53.34)">y</text><path class="cls-7" d="M43.26,88a43.67,43.67,0,0,0,31.4-11.84l-7.51-8A32.75,32.75,0,0,1,43.6,77Z" transform="translate(-1.13 -0.91)"/><path class="cls-8" d="M12.67,74A44,44,0,0,0,43.31,88l.39-11a33,33,0,0,1-23-10.49Z" transform="translate(-1.13 -0.91)"/><text x="-1.13" y="-0.91"></text><text x="-1.13" y="-0.91"></text><path class="cls-9" d="M1.16,42.48A44,44,0,0,0,12.78,74.1l8.09-7.46a33,33,0,0,1-8.71-23.71Z" transform="translate(-1.13 -0.91)"/><path class="cls-10" d="M15,12A44,44,0,0,0,1.13,42.71l11,.37a33,33,0,0,1,10.44-23Z" transform="translate(-1.13 -0.91)"/><text class="cls-3" transform="translate(54.55 76.8) rotate(155.65)">A</text><text class="cls-3" transform="translate(50.24 78.62) rotate(167.48)">c</text><text class="cls-3" transform="translate(47.58 79.21) rotate(173.85)">c</text><text class="cls-3" transform="translate(44.83 79.52) rotate(179.9)">o</text><text class="cls-3" transform="translate(41.65 79.53) rotate(-173.99)">u</text><text class="cls-3" transform="translate(38.76 79.24) rotate(-167.27)">n</text><text class="cls-3" transform="matrix(-0.95, -0.32, 0.32, -0.95, 35.82, 78.54)">t</text><text class="cls-3" transform="translate(34.53 78.13) rotate(-155.4)">s</text><text x="-1.13" y="-0.91"></text><text class="cls-6" transform="translate(11.73 54.92) rotate(-153.03)"> </text><text class="cls-6" transform="translate(10.37 54.24) rotate(-134.44)"> </text><text class="cls-6" transform="matrix(-0.52, -0.85, 0.85, -0.52, 9.26, 53.12)">P</text><text class="cls-6" transform="matrix(-0.38, -0.92, 0.92, -0.38, 8.41, 51.81)">e</text><text class="cls-6" transform="translate(7.52 49.61) rotate(-105.71)">r</text><text class="cls-6" transform="matrix(-0.2, -0.98, 0.98, -0.2, 7.07, 47.98)">f</text><text class="cls-6" transform="matrix(-0.12, -0.99, 0.99, -0.12, 6.8, 46.82)">o</text><text class="cls-6" transform="translate(6.49 44.17) rotate(-92.43)">r</text><text class="cls-6" transform="translate(6.37 42.49) rotate(-87.14)">m</text><text class="cls-6" transform="translate(6.57 38.87) rotate(-80.53)">a</text><text class="cls-6" transform="translate(7.02 36.15) rotate(-74.12)">n</text><text class="cls-6" transform="matrix(0.4, -0.92, 0.92, 0.4, 7.7, 33.72)">c</text><text class="cls-6" transform="matrix(0.55, -0.83, 0.83, 0.55, 8.55, 31.66)">e</text></svg>