<?xml version="1.0" encoding="UTF-8"?>
<!DOCTYPE svg PUBLIC "-//W3C//DTD SVG 1.1//EN" "http://www.w3.org/Graphics/SVG/1.1/DTD/svg11.dtd">
<svg version="1.1" xmlns="http://www.w3.org/2000/svg" xmlns:xlink="http://www.w3.org/1999/xlink" x="0" y="0" width="205" height="310" viewBox="0, 0, 205, 310">
  <g id="Layer_1">
    <g id="Home_Bug_Red">
      <g id="Chest_Blue">
        <g>
          <path d="M6.558,305.939 C6.558,305.939 4.727,266.079 5.366,243.03 C6.006,219.981 29.084,221.798 29.084,221.798 L90.332,221.798 L90.411,205.536 L115.948,205.536 L115.692,221.798 L176.94,221.798 C176.94,221.798 200.018,219.981 200.658,243.03 C201.297,266.079 198.978,305.939 198.978,305.939 L6.558,305.939 z" fill="#EB5065"/>
          <path d="M6.558,305.939 C6.558,305.939 4.727,266.079 5.366,243.03 C6.006,219.981 29.084,221.798 29.084,221.798 L90.332,221.798 L90.411,205.536 L115.948,205.536 L115.692,221.798 L176.94,221.798 C176.94,221.798 200.018,219.981 200.658,243.03 C201.297,266.079 198.978,305.939 198.978,305.939 L6.558,305.939 z" fill-opacity="0" stroke="#4C545B" stroke-width="3" stroke-linecap="round" stroke-linejoin="round" stroke-miterlimit="10"/>
        </g>
        <path d="M36.878,304.926 C36.878,304.926 36.418,255.192 36.418,255.192" fill-opacity="0" stroke="#4C545B" stroke-width="3" stroke-linecap="round"/>
        <path d="M170.181,304.926 C170.181,304.926 170.093,255.192 170.093,255.192" fill-opacity="0" stroke="#4C545B" stroke-width="3" stroke-linecap="round"/>
      </g>
      <path d="M63.549,220.477 C63.549,220.477 69.525,241.777 103.585,242.002 C137.644,241.777 143.474,220.477 143.474,220.477 L63.549,220.477 z" fill="#4C545B"/>
      <path d="M91.054,223.611 C91.054,223.611 91.11,206.999 91.11,206.999 C91.11,206.999 114.124,207.111 114.124,207.111 C114.124,207.111 113.844,226.709 113.844,226.709 C113.844,226.709 91.054,223.611 91.054,223.611 z" fill="#FBE8DD"/>
      <path d="M91.086,210.35 C91.086,210.35 100.23,212.456 113.984,210.413 C114.302,210.366 113.984,203.943 113.984,203.943 C113.984,203.943 91.149,204.037 91.149,204.037" fill="#D3B6A6"/>
      <path d="M67.752,222.588 C67.752,222.588 73.013,239.088 103.512,239.276 C134.01,239.088 139.331,222.708 139.331,222.708 L67.752,222.588 z" fill="#FBE8DD"/>
      <path d="M67.068,198.16 C67.068,198.16 76.199,202.57 76.199,202.57 C76.199,202.57 87.894,205.459 87.894,205.459 C87.894,205.459 96.473,207.015 96.473,207.015 C96.473,207.015 106.797,207.015 106.797,207.015 C106.797,207.015 118.972,204.547 118.972,204.547 C118.972,204.547 125.861,203.454 125.861,203.454 C125.861,203.454 133.871,199.655 133.871,199.655 C133.871,199.655 138.196,199.655 138.196,199.655 C138.196,199.655 138.677,196.335 138.677,196.335 C138.677,196.335 130.667,199.655 130.667,199.655 C130.667,199.655 123.938,201.506 123.938,201.506 C123.938,201.506 118.331,201.201 118.331,201.201 C118.331,201.201 111.603,201.658 111.603,201.658 C111.603,201.658 104.074,201.81 104.074,201.81 C104.074,201.81 98.307,201.962 98.307,201.962 C98.307,201.962 91.738,201.201 91.738,201.201 C91.738,201.201 83.729,199.655 83.729,199.655 C83.729,199.655 76.68,198.616 76.68,198.616 C76.68,198.616 67.869,198.008 67.869,198.008 C67.869,198.008 66.908,198.312 67.068,198.16 z" fill="#D3B6A6"/>
      <path d="M102.467,203.259 C63.444,202.616 31.846,185.922 32.362,146.113 L32.95,100.504 C33.466,60.696 65.819,28.068 105.286,28.588 C144.759,29.108 176.402,62.579 175.886,102.387 L175.295,147.996 C174.779,187.805 140.4,203.772 100.93,203.252" fill="#D3B6A6"/>
      <path d="M102.767,199.75 C62.236,199.127 29.03,181.011 29.566,142.445 L30.176,98.26 C30.711,59.694 64.315,28.084 105.308,28.588 C146.307,29.092 179.173,61.517 178.638,100.083 L178.024,144.268 C177.489,182.834 142.166,200.247 101.171,199.743" fill="#FAE3D6"/>
      <path d="M176.64,79.021 C176.64,79.021 169.203,83.88 159.039,84.96 C148.876,86.04 58.333,83.34 58.333,83.34 C58.333,83.34 44.924,84.536 41.738,90.776 C38.551,97.017 30.264,99.788 30.264,99.788 C30.264,99.788 34.339,76.622 34.339,76.622 C34.339,76.622 41.738,64.728 41.738,64.728 C41.738,64.728 171.956,66.428 171.956,66.428 C171.956,66.428 176.557,79.436 176.64,79.021 z" fill="#D3B6A6"/>
      <g id="Stragglers_Beard">
        <path d="M163.056,181.316 C163.056,181.316 163.056,176.144 163.056,176.144" fill-opacity="0" stroke="#EBD1B9" stroke-width="3" stroke-opacity="0.688" stroke-linecap="round"/>
        <path d="M176.392,154.428 C176.392,154.428 176.392,149.257 176.392,149.257" fill-opacity="0" stroke="#EBD1B9" stroke-width="3" stroke-opacity="0.688" stroke-linecap="round"/>
        <path d="M43.465,176.642 C43.465,176.642 43.464,171.471 43.464,171.471" fill-opacity="0" stroke="#EBD1B9" stroke-width="3" stroke-opacity="0.688" stroke-linecap="round"/>
        <path d="M30.764,151.438 C30.764,151.438 30.764,146.267 30.764,146.267" fill-opacity="0" stroke="#EBD1B9" stroke-width="3" stroke-opacity="0.688" stroke-linecap="round"/>
      </g>
      <path d="M103.331,207.509 L103.331,207.509 C61.783,207.02 28.541,176.283 29.084,138.855 L29.702,95.973 C30.245,58.545 64.369,28.599 105.914,29.088 C147.465,29.577 180.707,60.314 180.164,97.742 L179.542,140.624 C179,178.052 144.879,207.998 103.331,207.509 z" fill-opacity="0" stroke="#4C545B" stroke-width="3" stroke-linecap="round" stroke-miterlimit="10"/>
      <g id="Nose_B">
        <path d="M99.592,152.42 C99.592,152.42 100.326,154.104 101,153.826 C101.677,153.542 111.136,149.685 114.028,141.779 L110.837,140.9" fill="#D3B6A6"/>
        <path d="M101.982,124.714 C101.982,124.714 105.718,139.5 111.34,141.963 C111.34,141.963 105.283,153.047 100.092,151.815" fill-opacity="0" stroke="#4C545B" stroke-width="3" stroke-linecap="round" stroke-miterlimit="10"/>
      </g>
      <g id="Beard">
        <path d="M35.965,144.114 C35.965,144.114 35.965,138.942 35.965,138.942" fill-opacity="0" stroke="#EBD1B9" stroke-width="3" stroke-opacity="0.688" stroke-linecap="round"/>
        <path d="M43.363,152.092 C43.363,152.092 43.363,146.921 43.363,146.921" fill-opacity="0" stroke="#EBD1B9" stroke-width="3" stroke-opacity="0.688" stroke-linecap="round"/>
        <path d="M52.031,154.827 C52.031,154.827 52.031,149.655 52.031,149.655" fill-opacity="0" stroke="#EBD1B9" stroke-width="3" stroke-opacity="0.688" stroke-linecap="round"/>
        <path d="M43.363,164.971 C43.363,164.971 43.363,159.8 43.363,159.8" fill-opacity="0" stroke="#EBD1B9" stroke-width="3" stroke-opacity="0.688" stroke-linecap="round"/>
        <path d="M52.031,167.081 C52.031,167.081 52.031,161.91 52.031,161.91" fill-opacity="0" stroke="#EBD1B9" stroke-width="3" stroke-opacity="0.688" stroke-linecap="round"/>
        <path d="M67.169,163.108 C67.169,163.108 67.169,157.936 67.169,157.936" fill-opacity="0" stroke="#EBD1B9" stroke-width="3" stroke-opacity="0.688" stroke-linecap="round"/>
        <path d="M59.112,160.218 C59.112,160.218 59.112,155.046 59.112,155.046" fill-opacity="0" stroke="#EBD1B9" stroke-width="3" stroke-opacity="0.688" stroke-linecap="round"/>
        <path d="M59.112,174.873 C59.112,174.873 59.112,169.701 59.112,169.701" fill-opacity="0" stroke="#EBD1B9" stroke-width="3" stroke-opacity="0.688" stroke-linecap="round"/>
        <path d="M59.112,187.026 C59.112,187.026 59.112,181.854 59.112,181.854" fill-opacity="0" stroke="#EBD1B9" stroke-width="3" stroke-opacity="0.688" stroke-linecap="round"/>
        <path d="M67.169,176.66 C67.169,176.66 67.169,171.488 67.169,171.488" fill-opacity="0" stroke="#EBD1B9" stroke-width="3" stroke-opacity="0.688" stroke-linecap="round"/>
        <path d="M67.169,188.914 C67.169,188.914 67.169,183.743 67.169,183.743" fill-opacity="0" stroke="#EBD1B9" stroke-width="3" stroke-opacity="0.688" stroke-linecap="round"/>
        <path d="M74.861,166.611 C74.861,166.611 74.861,161.44 74.861,161.44" fill-opacity="0" stroke="#EBD1B9" stroke-width="3" stroke-opacity="0.688" stroke-linecap="round"/>
        <path d="M74.861,179.674 C74.861,179.674 74.861,174.503 74.861,174.503" fill-opacity="0" stroke="#EBD1B9" stroke-width="3" stroke-opacity="0.688" stroke-linecap="round"/>
        <path d="M74.861,193.207 C74.861,193.207 74.861,188.036 74.861,188.036" fill-opacity="0" stroke="#EBD1B9" stroke-width="3" stroke-opacity="0.688" stroke-linecap="round"/>
        <path d="M96.86,193.367 C96.86,193.367 96.86,188.196 96.86,188.196" fill-opacity="0" stroke="#EBD1B9" stroke-width="3" stroke-opacity="0.688" stroke-linecap="round"/>
        <path d="M111.073,196.495 C111.073,196.495 111.073,188.174 111.073,188.174" fill-opacity="0" stroke="#EBD1B9" stroke-width="3" stroke-opacity="0.688" stroke-linecap="round"/>
        <path d="M103.382,195.133 C103.382,195.133 103.382,189.961 103.382,189.961" fill-opacity="0" stroke="#EBD1B9" stroke-width="3" stroke-opacity="0.688" stroke-linecap="round"/>
        <path d="M84.311,170.409 C84.311,170.409 84.311,165.238 84.311,165.238" fill-opacity="0" stroke="#EBD1B9" stroke-width="3" stroke-opacity="0.688" stroke-linecap="round"/>
        <path d="M90.528,166.53 C90.528,166.53 90.528,161.358 90.528,161.358" fill-opacity="0" stroke="#EBD1B9" stroke-width="3" stroke-opacity="0.688" stroke-linecap="round"/>
        <path d="M96.916,164.469 C96.916,164.469 96.915,159.298 96.915,159.298" fill-opacity="0" stroke="#EBD1B9" stroke-width="3" stroke-opacity="0.688" stroke-linecap="round"/>
        <path d="M103.388,164.469 C103.388,164.469 103.388,159.298 103.388,159.298" fill-opacity="0" stroke="#EBD1B9" stroke-width="3" stroke-opacity="0.688" stroke-linecap="round"/>
        <path d="M109.688,164.469 C109.688,164.469 109.687,159.298 109.687,159.298" fill-opacity="0" stroke="#EBD1B9" stroke-width="3" stroke-opacity="0.688" stroke-linecap="round"/>
        <path d="M115.987,166.53 C115.987,166.53 115.987,161.358 115.987,161.358" fill-opacity="0" stroke="#EBD1B9" stroke-width="3" stroke-opacity="0.688" stroke-linecap="round"/>
        <path d="M84.311,180.753 C84.311,180.753 84.311,175.581 84.311,175.581" fill-opacity="0" stroke="#EBD1B9" stroke-width="3" stroke-opacity="0.688" stroke-linecap="round"/>
        <path d="M122.109,170.409 C122.109,170.409 122.108,165.238 122.108,165.238" fill-opacity="0" stroke="#EBD1B9" stroke-width="3" stroke-opacity="0.688" stroke-linecap="round"/>
        <path d="M122.109,180.753 C122.109,180.753 122.108,175.581 122.108,175.581" fill-opacity="0" stroke="#EBD1B9" stroke-width="3" stroke-opacity="0.688" stroke-linecap="round"/>
        <path d="M122.109,190.467 C122.109,190.467 122.108,185.295 122.108,185.295" fill-opacity="0" stroke="#EBD1B9" stroke-width="3" stroke-opacity="0.688" stroke-linecap="round"/>
        <path d="M115.987,193.085 C115.987,193.085 115.987,187.914 115.987,187.914" fill-opacity="0" stroke="#EBD1B9" stroke-width="3" stroke-opacity="0.688" stroke-linecap="round"/>
        <path d="M169.356,160.386 C169.356,160.386 169.356,155.215 169.356,155.215" fill-opacity="0" stroke="#EBD1B9" stroke-width="3" stroke-opacity="0.688" stroke-linecap="round"/>
        <path d="M153.566,181.316 C153.566,181.316 153.566,176.144 153.566,176.144" fill-opacity="0" stroke="#EBD1B9" stroke-width="3" stroke-opacity="0.688" stroke-linecap="round"/>
        <path d="M169.356,147.104 C169.356,147.104 169.356,141.932 169.356,141.932" fill-opacity="0" stroke="#EBD1B9" stroke-width="3" stroke-opacity="0.688" stroke-linecap="round"/>
        <path d="M163.056,155.06 C163.056,155.06 163.056,149.889 163.056,149.889" fill-opacity="0" stroke="#EBD1B9" stroke-width="3" stroke-opacity="0.688" stroke-linecap="round"/>
        <path d="M153.566,157.795 C153.566,157.795 153.566,152.623 153.566,152.623" fill-opacity="0" stroke="#EBD1B9" stroke-width="3" stroke-opacity="0.688" stroke-linecap="round"/>
        <path d="M163.056,167.939 C163.056,167.939 163.056,162.768 163.056,162.768" fill-opacity="0" stroke="#EBD1B9" stroke-width="3" stroke-opacity="0.688" stroke-linecap="round"/>
        <path d="M153.566,170.049 C153.566,170.049 153.566,164.878 153.566,164.878" fill-opacity="0" stroke="#EBD1B9" stroke-width="3" stroke-opacity="0.688" stroke-linecap="round"/>
        <path d="M138.169,166.076 C138.169,166.076 138.169,160.904 138.169,160.904" fill-opacity="0" stroke="#EBD1B9" stroke-width="3" stroke-opacity="0.688" stroke-linecap="round"/>
        <path d="M146.299,163.366 C146.299,163.366 146.299,158.194 146.299,158.194" fill-opacity="0" stroke="#EBD1B9" stroke-width="3" stroke-opacity="0.688" stroke-linecap="round"/>
        <path d="M146.299,177.841 C146.299,177.841 146.299,172.669 146.299,172.669" fill-opacity="0" stroke="#EBD1B9" stroke-width="3" stroke-opacity="0.688" stroke-linecap="round"/>
        <path d="M146.299,190.095 C146.299,190.095 146.299,184.924 146.299,184.924" fill-opacity="0" stroke="#EBD1B9" stroke-width="3" stroke-opacity="0.688" stroke-linecap="round"/>
        <path d="M138.169,179.628 C138.169,179.628 138.169,174.456 138.169,174.456" fill-opacity="0" stroke="#EBD1B9" stroke-width="3" stroke-opacity="0.688" stroke-linecap="round"/>
        <path d="M138.169,191.882 C138.169,191.882 138.169,186.711 138.169,186.711" fill-opacity="0" stroke="#EBD1B9" stroke-width="3" stroke-opacity="0.688" stroke-linecap="round"/>
        <path d="M130.477,169.759 C130.477,169.759 130.477,164.587 130.477,164.587" fill-opacity="0" stroke="#EBD1B9" stroke-width="3" stroke-opacity="0.688" stroke-linecap="round"/>
        <path d="M130.477,182.842 C130.477,182.842 130.477,177.67 130.477,177.67" fill-opacity="0" stroke="#EBD1B9" stroke-width="3" stroke-opacity="0.688" stroke-linecap="round"/>
        <path d="M130.477,195.056 C130.477,195.056 130.477,189.885 130.477,189.885" fill-opacity="0" stroke="#EBD1B9" stroke-width="3" stroke-opacity="0.688" stroke-linecap="round"/>
        <path d="M52.335,178.348 C52.335,178.348 52.335,173.176 52.335,173.176" fill-opacity="0" stroke="#EBD1B9" stroke-width="3" stroke-opacity="0.688" stroke-linecap="round"/>
        <path d="M90.528,196.838 C90.528,196.838 90.555,189.121 90.555,189.121" fill-opacity="0" stroke="#EBD1B9" stroke-width="3" stroke-opacity="0.688" stroke-linecap="round"/>
        <path d="M84.311,190.923 C84.311,190.923 84.311,185.751 84.311,185.751" fill-opacity="0" stroke="#EBD1B9" stroke-width="3" stroke-opacity="0.688" stroke-linecap="round"/>
        <path d="M37.064,157.418 C37.064,157.418 37.064,152.247 37.064,152.247" fill-opacity="0" stroke="#EBD1B9" stroke-width="3" stroke-opacity="0.688" stroke-linecap="round"/>
      </g>
      <g>
        <path d="M6.558,305.939 C6.558,305.939 5.431,274.725 5.431,274.725 C5.492,274.662 36.454,275.061 36.454,275.061 C36.454,275.061 36.555,305.939 36.555,305.939 C36.555,305.939 6.558,305.939 6.558,305.939 z" fill="#FBE8DD"/>
        <path d="M6.558,305.939 C6.558,305.939 5.431,274.725 5.431,274.725 C5.492,274.662 36.454,275.061 36.454,275.061 C36.454,275.061 36.555,305.939 36.555,305.939 C36.555,305.939 6.558,305.939 6.558,305.939 z" fill-opacity="0" stroke="#4C545B" stroke-width="2.8" stroke-linejoin="round"/>
      </g>
      <g>
        <path d="M198.682,304.925 C198.682,304.925 199.952,273.837 199.952,273.837 C199.89,273.776 170.424,274.069 170.424,274.069 C170.424,274.069 170.181,304.923 170.181,304.923 C170.181,304.923 198.682,304.925 198.682,304.925 z" fill="#FBE8DD"/>
        <path d="M198.682,304.925 C198.682,304.925 199.952,273.837 199.952,273.837 C199.89,273.776 170.424,274.069 170.424,274.069 C170.424,274.069 170.181,304.923 170.181,304.923 C170.181,304.923 198.682,304.925 198.682,304.925 z" fill-opacity="0" stroke="#4C545B" stroke-width="2.8" stroke-linejoin="round"/>
      </g>
      <g id="Hair">
        <g>
          <path d="M29.762,100.295 C29.762,100.295 32.842,79.377 49.381,78.27 C65.921,77.162 143.301,79.931 143.301,79.931 C143.301,79.931 182.839,79.645 189.133,51.134 C195.428,22.623 193.146,23.457 187.507,20.813 C187.507,20.813 187.507,20.813 187.507,20.813 C187.507,20.813 187.507,20.813 187.507,20.813 C184.512,19.409 149.804,5.384 117.287,5.069 C88.566,4.791 61.806,11.789 61.806,11.529 C61.806,11.529 35.635,14.583 32.197,57.226 C28.758,99.868 29.762,101.703 29.762,100.295 z" fill="#C2996E"/>
          <path d="M29.762,100.295 C29.762,100.295 32.842,79.377 49.381,78.27 C65.921,77.162 143.301,79.931 143.301,79.931 C143.301,79.931 182.839,79.645 189.133,51.134 C195.428,22.623 193.146,23.457 187.507,20.813 C187.507,20.813 187.507,20.813 187.507,20.813 C187.507,20.813 187.507,20.813 187.507,20.813 C184.512,19.409 149.804,5.384 117.287,5.069 C88.566,4.791 61.806,11.789 61.806,11.529 C61.806,11.529 35.635,14.583 32.197,57.226 C28.758,99.868 29.762,101.703 29.762,100.295 z" fill-opacity="0" stroke="#4C545B" stroke-width="3" stroke-linecap="round"/>
        </g>
        <path d="M133.853,74.197 C133.853,74.197 150.814,75.685 161.228,70.031" fill-opacity="0" stroke="#E3C09F" stroke-width="3" stroke-linecap="round"/>
        <path d="M166.14,67.936 C168.959,66.278 170.949,64.453 170.949,64.453" fill-opacity="0" stroke="#DBB38E" stroke-width="3" stroke-linecap="round"/>
        <path d="M42.263,39.155 C42.263,39.155 46.59,25.584 61.806,19.884" fill-opacity="0" stroke="#DBB38E" stroke-width="3" stroke-linecap="round"/>
        <path d="M67.381,17.932 C67.381,17.932 71.436,15.616 80.969,15.767" fill-opacity="0" stroke="#DBB38E" stroke-width="3" stroke-linecap="round"/>
        <path d="M126.139,61.206 C126.139,61.206 159.723,59.927 177.778,34.649" fill-opacity="0" stroke="#DBB38E" stroke-width="3" stroke-linecap="round"/>
        <path d="M114.268,61.206 C114.268,61.206 102.651,62.413 97.019,61.206" fill-opacity="0" stroke="#DBB38E" stroke-width="3" stroke-linecap="round"/>
        <path d="M39.566,49.286 C39.566,49.286 36.626,63.965 36.626,74.374" fill-opacity="0" stroke="#DBB38E" stroke-width="3" stroke-linecap="round"/>
        <path d="M110.414,37.085 C110.414,37.085 126.546,38.961 141.467,29.422" fill-opacity="0" stroke="#DBB38E" stroke-width="3" stroke-linecap="round"/>
        <path d="M80.969,46.509 C80.969,46.509 57.164,51.897 55.991,64.453" fill-opacity="0" stroke="#DBB38E" stroke-width="3" stroke-linecap="round"/>
      </g>
      <g id="eye_right">
        <g>
          <path d="M135.405,136.041 C123.757,136.041 114.314,126.599 114.314,114.95 C114.314,103.302 123.757,93.859 135.405,93.859 C147.053,93.859 156.496,103.302 156.496,114.95 C156.496,126.599 147.053,136.041 135.405,136.041 z" fill="#FFFFFF"/>
          <path d="M135.405,136.041 C123.757,136.041 114.314,126.599 114.314,114.95 C114.314,103.302 123.757,93.859 135.405,93.859 C147.053,93.859 156.496,103.302 156.496,114.95 C156.496,126.599 147.053,136.041 135.405,136.041 z" fill-opacity="0" stroke="#4C545B" stroke-width="3"/>
        </g>
        <g>
          <g>
            <path d="M135.405,130.661 C126.728,130.661 119.694,123.627 119.694,114.95 C119.694,106.273 126.728,99.239 135.405,99.239 C144.082,99.239 151.116,106.273 151.116,114.95 C151.116,123.627 144.082,130.661 135.405,130.661 z" fill="#4C545B"/>
            <path d="M135.405,130.661 C126.728,130.661 119.694,123.627 119.694,114.95 C119.694,106.273 126.728,99.239 135.405,99.239 C144.082,99.239 151.116,106.273 151.116,114.95 C151.116,123.627 144.082,130.661 135.405,130.661 z" fill-opacity="0" stroke="#4C545B" stroke-width="3"/>
          </g>
          <path d="M138.955,116.351 C135.103,116.351 131.981,113.229 131.981,109.377 C131.981,105.525 135.103,102.403 138.955,102.403 C142.807,102.403 145.929,105.525 145.929,109.377 C145.929,113.229 142.807,116.351 138.955,116.351 z" fill="#FAFDFF"/>
          <path d="M126.861,125.301 C125.922,125.301 125.161,124.54 125.161,123.601 C125.161,122.663 125.922,121.902 126.861,121.902 C127.799,121.902 128.56,122.663 128.56,123.601 C128.56,124.54 127.799,125.301 126.861,125.301 z" fill="#FAFDFF"/>
        </g>
      </g>
      <path d="M95.75,178.008 C95.75,178.008 102.405,171.987 109.156,178.008" fill-opacity="0" stroke="#4C545B" stroke-width="3" stroke-linecap="round" id="sad_mouth"/>
      <g id="eye_left">
        <g>
          <path d="M74.658,136.041 C63.01,136.041 53.567,126.599 53.567,114.95 C53.567,103.302 63.01,93.859 74.658,93.859 C86.307,93.859 95.75,103.302 95.75,114.95 C95.75,126.599 86.307,136.041 74.658,136.041 z" fill="#FFFFFF"/>
          <path d="M74.658,136.041 C63.01,136.041 53.567,126.599 53.567,114.95 C53.567,103.302 63.01,93.859 74.658,93.859 C86.307,93.859 95.75,103.302 95.75,114.95 C95.75,126.599 86.307,136.041 74.658,136.041 z" fill-opacity="0" stroke="#4C545B" stroke-width="3"/>
        </g>
        <g>
          <g>
            <path d="M74.658,130.661 C65.982,130.661 58.948,123.627 58.948,114.95 C58.948,106.273 65.982,99.239 74.658,99.239 C83.335,99.239 90.369,106.273 90.369,114.95 C90.369,123.627 83.335,130.661 74.658,130.661 z" fill="#4C545B"/>
            <path d="M74.658,130.661 C65.982,130.661 58.948,123.627 58.948,114.95 C58.948,106.273 65.982,99.239 74.658,99.239 C83.335,99.239 90.369,106.273 90.369,114.95 C90.369,123.627 83.335,130.661 74.658,130.661 z" fill-opacity="0" stroke="#4C545B" stroke-width="3"/>
          </g>
          <path d="M78.208,116.351 C74.357,116.351 71.234,113.229 71.234,109.377 C71.234,105.525 74.357,102.403 78.208,102.403 C82.06,102.403 85.182,105.525 85.182,109.377 C85.182,113.229 82.06,116.351 78.208,116.351 z" fill="#FAFDFF"/>
          <path d="M66.369,125.301 C65.29,125.301 64.415,124.426 64.415,123.346 C64.415,122.267 65.29,121.392 66.369,121.392 C67.449,121.392 68.324,122.267 68.324,123.346 C68.324,124.426 67.449,125.301 66.369,125.301 z" fill="#FAFDFF"/>
        </g>
      </g>
      <path d="M55.074,97.48 C55.074,97.48 59.983,87.408 82.695,89.838 C83.085,89.88 87.104,89.751 88.478,87.004" fill-opacity="0" stroke="#4C545B" stroke-width="3" stroke-linecap="round"/>
      <path d="M153.969,97.48 C153.969,97.48 149.06,87.408 126.348,89.838 C125.958,89.88 121.938,89.751 120.565,87.004" fill-opacity="0" stroke="#4C545B" stroke-width="3" stroke-linecap="round"/>
    </g>
  </g>
</svg>
