<?xml version="1.0" encoding="UTF-8"?>
<!DOCTYPE svg PUBLIC "-//W3C//DTD SVG 1.1//EN" "http://www.w3.org/Graphics/SVG/1.1/DTD/svg11.dtd">
<svg version="1.1" xmlns="http://www.w3.org/2000/svg" xmlns:xlink="http://www.w3.org/1999/xlink" x="0" y="0" width="210" height="310" viewBox="0, 0, 210, 310">
  <g id="Layer_1">
    <g id="Teacher_Feature">
      <g>
        <path d="M7.366,304.477 C7.366,304.477 6.722,275.062 7.366,250.764 C8.009,226.465 31.247,228.381 31.247,228.381 L92.918,228.381 L92.918,211.238 L118.082,211.238 L118.082,228.381 L179.753,228.381 C179.753,228.381 202.991,226.465 203.634,250.764 C204.278,275.062 203.634,304.477 203.634,304.477 L7.366,304.477 z" fill="#FFFFFF"/>
        <path d="M7.366,304.477 C7.366,304.477 6.722,275.062 7.366,250.764 C8.009,226.465 31.247,228.381 31.247,228.381 L92.918,228.381 L92.918,211.238 L118.082,211.238 L118.082,228.381 L179.753,228.381 C179.753,228.381 202.991,226.465 203.634,250.764 C204.278,275.062 203.634,304.477 203.634,304.477 L7.366,304.477 z" fill-opacity="0" stroke="#4C545B" stroke-width="3" stroke-linecap="round" stroke-linejoin="round" stroke-miterlimit="10"/>
      </g>
      <path d="M92.923,227.559 C92.923,227.559 117.561,227.423 117.561,227.423 C117.561,227.423 117.564,206.137 117.564,206.137 C117.564,206.137 92.403,206.488 92.403,206.488" fill="#FBE8DE"/>
      <path d="M30.426,137.871 C30.426,137.871 30.049,154.271 33.832,157.458 C37.618,160.645 40.145,174.236 42.593,174.658 C45.041,175.076 55.34,189.723 55.34,189.723 C55.34,189.723 92.403,212.253 104.982,208.042 C117.561,203.834 136.993,206.25 142.171,197.089" fill="#D3B6A6"/>
      <path d="M103.691,210.794 L103.691,210.794 C62.167,210.252 28.945,176.151 29.487,134.627 L30.106,87.053 C30.648,45.529 64.752,12.307 106.273,12.849 C147.8,13.391 181.022,47.492 180.48,89.016 L179.858,136.59 C179.316,178.114 145.215,211.337 103.691,210.794" fill="#D3B6A6"/>
      <path d="M93.244,213.777 C93.244,213.777 103.724,217.237 117.258,213.764 C117.572,213.683 116.248,207.641 116.248,207.641 C116.248,207.641 92.657,207.641 92.657,207.641" fill="#D3B6A6"/>
      <path d="M102.176,206.131 L102.176,206.131 C61.5,205.601 28.956,172.304 29.487,131.758 L30.093,85.305 C30.624,44.759 64.031,12.319 104.704,12.849 C145.383,13.378 177.927,46.676 177.396,87.221 L176.787,133.675 C176.256,174.221 142.852,206.66 102.176,206.131" fill="#FAE3D6"/>
      <g>
        <path d="M92.26,56.18 C92.26,56.18 84.824,63.499 31.447,73.497 L31.447,65.829 L40.155,55.292 L88.033,51.271 L92.26,56.18 z" fill="#D3B6A6"/>
        <path d="M88.033,51.268 C88.033,51.268 104.557,79.686 180.334,81.7 L179.554,69.384 L80.226,41.175 L88.033,51.268 z" fill="#D3B6A6"/>
      </g>
      <path d="M104.191,211.294 L104.191,211.294 C62.667,210.752 29.445,176.651 29.987,135.127 L30.606,87.553 C31.148,46.029 65.252,12.807 106.773,13.349 C148.3,13.891 181.522,47.992 180.98,89.516 L180.358,137.09 C179.816,178.614 145.715,211.837 104.191,211.294 z" fill-opacity="0" stroke="#4C545B" stroke-width="3" stroke-linecap="round" stroke-miterlimit="10"/>
      <path d="M103.032,133.812 C103.032,133.812 103.771,135.598 104.449,135.303 C105.131,135.001 114.653,130.911 117.564,122.527 L114.352,121.595" fill="#D3B6A6"/>
      <path d="M104.931,103.304 C104.931,103.304 108.692,118.985 114.352,121.598 C114.352,121.598 108.254,133.353 103.029,132.046" fill="#FAE3D6"/>
      <g>
        <path d="M22.434,229.872 C22.434,229.872 40.082,258.356 41.881,304.477 L171.07,304.477 C172.868,258.356 189.484,230.663 189.484,230.663 L22.434,229.872 z" fill="#096E9E"/>
        <path d="M22.434,229.872 C22.434,229.872 40.082,258.356 41.881,304.477 L171.07,304.477 C172.868,258.356 189.484,230.663 189.484,230.663 L22.434,229.872 z" fill-opacity="0" stroke="#4C545B" stroke-width="3" stroke-linecap="round" stroke-linejoin="round"/>
      </g>
      <g>
        <path d="M139.699,231.295 C139.699,231.295 110.657,270.79 106.274,271.335 C101.892,271.88 74.439,236.233 74.389,230.954" fill="#FFFFFF"/>
        <path d="M139.699,231.295 C139.699,231.295 110.657,270.79 106.274,271.335 C101.892,271.88 74.439,236.233 74.389,230.954" fill-opacity="0" stroke="#4C545B" stroke-width="3"/>
      </g>
      <path d="M105.431,103.804 C105.431,103.804 109.192,119.485 114.852,122.098 C114.852,122.098 108.754,133.853 103.529,132.546" fill-opacity="0" stroke="#4C545B" stroke-width="3" stroke-linecap="round" stroke-miterlimit="10"/>
      <path d="M96.952,172.953 C96.952,172.953 101.747,178.975 111.83,178.303" fill-opacity="0" stroke="#4C545B" stroke-width="3" stroke-linecap="round" stroke-miterlimit="10"/>
      <path d="M177.902,93.273 C177.902,110.738 163.744,124.897 146.278,124.897 C128.813,124.897 114.654,110.738 114.654,93.273 C114.654,75.807 128.813,61.649 146.278,61.649 C163.744,61.649 177.902,75.807 177.902,93.273 z" fill-opacity="0" stroke="#4C545B" stroke-width="3" stroke-linecap="round" stroke-miterlimit="10"/>
      <path d="M99.013,90.167 C99.013,108.465 84.18,123.298 65.883,123.298 C47.586,123.298 32.753,108.465 32.753,90.167 C32.753,71.87 47.586,57.037 65.883,57.037 C84.18,57.037 99.013,71.87 99.013,90.167 z" fill-opacity="0" stroke="#4C545B" stroke-width="3" stroke-linecap="round" stroke-miterlimit="10"/>
      <path d="M140.506,171.953 C140.506,171.953 139.298,173.96 133.942,174.655 C128.59,175.349 107.281,171.376 104.982,166.714 C104.982,166.714 91.8,174.486 73.84,176.04 C73.84,176.04 64.387,173.377 62.44,168.785 C60.49,164.197 104.449,151.862 104.449,151.862" fill="#D3B6A6"/>
      <g id="Mustache">
        <g>
          <path d="M104.433,145.097 C104.433,145.097 116.345,130.803 124.395,145.097 C132.448,159.391 138.359,159.645 142.286,159.645 C146.212,159.645 149.848,159.134 152.704,155.307 C155.562,151.477 150.074,173.783 135.817,171.17 C135.817,171.17 104.433,168.355 104.433,156.724" fill="#4B2C00"/>
          <path d="M104.433,145.097 C104.433,145.097 116.345,130.803 124.395,145.097 C132.448,159.391 138.359,159.645 142.286,159.645 C146.212,159.645 149.848,159.134 152.704,155.307 C155.562,151.477 150.074,173.783 135.817,171.17 C135.817,171.17 104.433,168.355 104.433,156.724" fill-opacity="0" stroke="#27292D" stroke-width="3"/>
        </g>
        <path d="M105.291,144.224 C105.291,144.224 93.379,129.93 85.329,144.224 C77.276,158.518 71.365,158.772 67.439,158.772 C63.512,158.772 59.876,158.261 57.021,154.434 C54.162,150.604 59.65,172.91 73.908,170.298 C73.908,170.298 105.291,167.482 105.291,155.852" fill="#4B2C00"/>
        <path d="M104.949,144.723 C104.949,144.723 93.242,130.428 85.33,144.723 C77.415,159.018 71.606,159.271 67.747,159.271 C63.888,159.271 60.314,158.761 57.508,154.933 C54.699,151.103 60.092,173.411 74.105,170.798 C74.105,170.798 104.949,167.982 104.949,156.351" fill-opacity="0" stroke="#27292D" stroke-width="3" stroke-linecap="round" stroke-miterlimit="10"/>
      </g>
      <path d="M99.412,89.748 C99.412,89.748 106.332,80.103 114.654,89.748" fill-opacity="0" stroke="#4C545B" stroke-width="3" stroke-linecap="round" stroke-miterlimit="10"/>
      <path d="M31.586,66.803 C31.586,66.803 82.671,57.132 93.773,49.382 C104.874,41.635 80.369,10.912 80.369,10.912 C80.369,10.912 37.954,24.718 31.586,66.803" fill="#68381E"/>
      <path d="M32.753,67.303 C32.753,67.303 83.837,57.632 94.939,49.882 C106.04,42.135 81.535,11.411 81.535,11.411 C81.535,11.411 39.12,25.218 32.753,67.303 z" fill-opacity="0" stroke="#27292D" stroke-width="3" stroke-linecap="round" stroke-miterlimit="10"/>
      <path d="M76.763,12.104 C76.763,12.104 77.22,37.855 101.526,56.263 C116.632,67.704 140.954,76.31 180.106,74.131 C180.106,74.131 163.81,-18.116 76.763,12.104" fill="#68381E"/>
      <path d="M76.695,12.604 C76.695,12.604 77.152,38.355 101.457,56.763 C116.564,68.204 140.885,76.81 180.037,74.631 C180.037,74.631 163.742,-17.616 76.695,12.604 z" fill-opacity="0" stroke="#27292D" stroke-width="3" stroke-linecap="round" stroke-miterlimit="10"/>
      <path d="M67.868,28.877 C67.868,28.877 70.059,47.196 77.263,48.055" fill-opacity="0" stroke="#3B2800" stroke-width="3" stroke-linecap="round" stroke-miterlimit="10"/>
      <path d="M44.396,50.059 C44.396,50.059 55.847,56.633 67.868,54.489" fill-opacity="0" stroke="#3B2800" stroke-width="3" stroke-linecap="round" stroke-miterlimit="10"/>
      <path d="M97.19,16.856 C97.19,16.856 92.11,45.481 128.938,58.935" fill-opacity="0" stroke="#3B2800" stroke-width="3" stroke-linecap="round" stroke-miterlimit="10"/>
      <path d="M135.039,31.167 C135.039,31.167 155.745,35.562 167.192,63.856" fill-opacity="0" stroke="#3B2800" stroke-width="3" stroke-linecap="round" stroke-miterlimit="10"/>
      <path d="M144.58,52.742 C144.58,52.742 152.216,55.155 151.119,62.911" fill-opacity="0" stroke="#3B2800" stroke-width="3" stroke-linecap="round" stroke-miterlimit="10"/>
      <path d="M72.843,166.206 C72.843,166.206 77.346,166.409 82.641,164.452" fill-opacity="0" stroke="#251A00" stroke-width="3" stroke-linecap="round" stroke-miterlimit="10"/>
      <path d="M114.352,144.483 C114.352,144.483 115.139,150.317 117.561,151.862" fill="#4B2C00"/>
      <path d="M114.852,144.983 C114.852,144.983 115.639,150.817 118.061,152.362" fill-opacity="0" stroke="#251A00" stroke-width="3" stroke-linecap="round" stroke-miterlimit="10"/>
      <path d="M128.434,163.953 C128.434,163.953 129.218,165.17 134.539,163.953" fill="#4B2C00"/>
      <path d="M128.934,164.453 C128.934,164.453 129.718,165.67 135.039,164.453" fill-opacity="0" stroke="#251A00" stroke-width="3" stroke-linecap="round" stroke-miterlimit="10"/>
      <path d="M96.452,144.483 C96.452,144.483 94.02,147.727 92.403,150.162" fill="#4B2C00"/>
      <path d="M102.034,229.872 C102.034,229.872 101.849,265.633 101.849,265.879" fill-opacity="0" stroke="#4C545B" stroke-width="3" stroke-linecap="round"/>
      <path d="M96.952,144.983 C96.952,144.983 94.52,148.227 92.903,150.662" fill-opacity="0" stroke="#251A00" stroke-width="3" stroke-linecap="round" stroke-miterlimit="10"/>
      <g id="Cuffs">
        <g>
          <path d="M105.564,228.458 C105.564,228.458 117.46,222.458 117.231,213.35 C117.001,204.242 129.904,228.458 129.904,228.458 C129.904,228.458 114.298,239.581 114.298,239.581 C114.298,239.581 114.427,231.335 105.564,228.458 z" fill="#FFFFFF"/>
          <path d="M105.564,228.458 C105.564,228.458 117.46,222.458 117.231,213.35 C117.001,204.242 129.904,228.458 129.904,228.458 C129.904,228.458 114.298,239.581 114.298,239.581 C114.298,239.581 114.427,231.335 105.564,228.458 z" fill-opacity="0" stroke="#4C545B" stroke-width="3"/>
        </g>
        <g>
          <path d="M105.4,228.458 C105.4,228.458 93.504,222.458 93.733,213.35 C93.963,204.242 81.06,228.458 81.06,228.458 C81.06,228.458 96.666,239.581 96.666,239.581 C96.666,239.581 96.537,231.335 105.4,228.458 z" fill="#FFFFFF"/>
          <path d="M105.4,228.458 C105.4,228.458 93.504,222.458 93.733,213.35 C93.963,204.242 81.06,228.458 81.06,228.458 C81.06,228.458 96.666,239.581 96.666,239.581 C96.666,239.581 96.537,231.335 105.4,228.458 z" fill-opacity="0" stroke="#4C545B" stroke-width="3"/>
        </g>
      </g>
      <g>
        <path d="M7.365,304.477 C7.365,304.477 203.598,304.477 203.598,304.477" fill="#0C2103"/>
        <path d="M7.365,304.477 C7.365,304.477 203.598,304.477 203.598,304.477" fill-opacity="0" stroke="#3C4249" stroke-width="3"/>
      </g>
      <g id="Bow_Tie">
        <g>
          <path d="M100.956,238.804 L86.852,247.143 L86.852,223.726 L100.383,230.07" fill="#FFFFFF"/>
          <path d="M100.956,238.804 L86.852,247.143 L86.852,223.726 L100.383,230.07" fill-opacity="0" stroke="#4C545B" stroke-width="3" stroke-linecap="round" stroke-linejoin="round" stroke-miterlimit="10"/>
        </g>
        <g>
          <path d="M110.011,238.804 L124.115,247.143 L124.115,223.726 L110.584,230.07" fill="#FFFFFF"/>
          <path d="M110.011,238.804 L124.115,247.143 L124.115,223.726 L110.584,230.07" fill-opacity="0" stroke="#4C545B" stroke-width="3" stroke-linecap="round" stroke-linejoin="round" stroke-miterlimit="10"/>
        </g>
        <g>
          <path d="M98.435,234.223 L93.904,234.223" fill="#FFFFFF"/>
          <path d="M98.435,234.223 L93.904,234.223" fill-opacity="0" stroke="#4C545B" stroke-width="3" stroke-linecap="round" stroke-linejoin="round" stroke-miterlimit="10"/>
        </g>
        <g>
          <path d="M111.748,234.223 L116.578,234.223" fill="#FFFFFF"/>
          <path d="M111.748,234.223 L116.578,234.223" fill-opacity="0" stroke="#4C545B" stroke-width="3" stroke-linecap="round" stroke-linejoin="round" stroke-miterlimit="10"/>
        </g>
        <g>
          <path d="M111.748,234.223 C111.748,237.466 108.767,240.098 105.09,240.098 C101.416,240.098 98.435,237.466 98.435,234.223 C98.435,232.599 99.181,231.131 100.386,230.067 C101.589,229.002 103.255,228.344 105.09,228.344 C108.763,228.344 111.748,230.976 111.748,234.223 z" fill="#FFFFFF"/>
          <path d="M111.748,234.223 C111.748,237.466 108.767,240.098 105.09,240.098 C101.416,240.098 98.435,237.466 98.435,234.223 C98.435,232.599 99.181,231.131 100.386,230.067 C101.589,229.002 103.255,228.344 105.09,228.344 C108.763,228.344 111.748,230.976 111.748,234.223 z" fill-opacity="0" stroke="#4C545B" stroke-width="3" stroke-linecap="round" stroke-miterlimit="10"/>
        </g>
      </g>
      <g id="Buttons">
        <path d="M105.718,250.206 C105.222,250.206 104.82,249.804 104.82,249.308 C104.82,248.812 105.222,248.41 105.718,248.41 C106.214,248.41 106.616,248.812 106.616,249.308 C106.616,249.804 106.214,250.206 105.718,250.206 z" fill-opacity="0" stroke="#4C545B" stroke-width="1"/>
        <path d="M105.718,258.474 C105.222,258.474 104.82,258.072 104.82,257.576 C104.82,257.081 105.222,256.679 105.718,256.679 C106.214,256.679 106.616,257.081 106.616,257.576 C106.616,258.072 106.214,258.474 105.718,258.474 z" fill-opacity="0" stroke="#4C545B" stroke-width="1"/>
        <path d="M105.718,267.208 C105.222,267.208 104.82,266.806 104.82,266.31 C104.82,265.814 105.222,265.412 105.718,265.412 C106.214,265.412 106.616,265.814 106.616,266.31 C106.616,266.806 106.214,267.208 105.718,267.208 z" fill-opacity="0" stroke="#4C545B" stroke-width="1"/>
      </g>
      <g id="Eyes">
        <path d="M135.958,93.477 C135.958,93.477 146.756,81.602 157.921,93.113" fill-opacity="0" stroke="#4C545B" stroke-width="3" stroke-linecap="round" stroke-miterlimit="10"/>
        <path d="M53.625,93.477 C53.625,93.477 64.423,81.602 75.587,93.113" fill-opacity="0" stroke="#4C545B" stroke-width="3" stroke-linecap="round" stroke-miterlimit="10"/>
      </g>
    </g>
  </g>
</svg>
